<?xml version="1.0" encoding="utf-8" standalone="no"?>
<!DOCTYPE svg PUBLIC "-//W3C//DTD SVG 1.1//EN"
  "http://www.w3.org/Graphics/SVG/1.1/DTD/svg11.dtd">
<svg xmlns:xlink="http://www.w3.org/1999/xlink" width="720pt" height="288pt" viewBox="0 0 720 288" xmlns="http://www.w3.org/2000/svg" version="1.1">
 <metadata>
  <rdf:RDF xmlns:dc="http://purl.org/dc/elements/1.1/" xmlns:cc="http://creativecommons.org/ns#" xmlns:rdf="http://www.w3.org/1999/02/22-rdf-syntax-ns#">
   <cc:Work>
    <dc:type rdf:resource="http://purl.org/dc/dcmitype/StillImage"/>
    <dc:date>2024-08-13T11:52:10.912590</dc:date>
    <dc:format>image/svg+xml</dc:format>
    <dc:creator>
     <cc:Agent>
      <dc:title>Matplotlib v3.9.1, https://matplotlib.org/</dc:title>
     </cc:Agent>
    </dc:creator>
   </cc:Work>
  </rdf:RDF>
 </metadata>
 <defs>
  <style type="text/css">*{stroke-linejoin: round; stroke-linecap: butt}</style>
 </defs>
 <g id="figure_1">
  <g id="patch_1">
   <path d="M 0 288 
L 720 288 
L 720 0 
L 0 0 
z
" style="fill: #ffffff"/>
  </g>
  <g id="axes_1">
   <g id="patch_2">
    <path d="M 90 256.32 
L 648 256.32 
L 648 34.56 
L 90 34.56 
z
" style="fill: #ffffff"/>
   </g>
   <g id="matplotlib.axis_1">
    <g id="xtick_1">
     <g id="line2d_1">
      <defs>
       <path id="ma436c41eb8" d="M 0 0 
L 0 3.5 
" style="stroke: #000000; stroke-width: 0.8"/>
      </defs>
      <g>
       <use xlink:href="#ma436c41eb8" x="107.122744" y="256.32" style="stroke: #000000; stroke-width: 0.8"/>
      </g>
     </g>
     <g id="text_1">
      <!-- 5 -->
      <g transform="translate(103.941494 270.918437) scale(0.1 -0.1)">
       <defs>
        <path id="DejaVuSans-35" d="M 691 4666 
L 3169 4666 
L 3169 4134 
L 1269 4134 
L 1269 2991 
Q 1406 3038 1543 3061 
Q 1681 3084 1819 3084 
Q 2600 3084 3056 2656 
Q 3513 2228 3513 1497 
Q 3513 744 3044 326 
Q 2575 -91 1722 -91 
Q 1428 -91 1123 -41 
Q 819 9 494 109 
L 494 744 
Q 775 591 1075 516 
Q 1375 441 1709 441 
Q 2250 441 2565 725 
Q 2881 1009 2881 1497 
Q 2881 1984 2565 2268 
Q 2250 2553 1709 2553 
Q 1456 2553 1204 2497 
Q 953 2441 691 2322 
L 691 4666 
z
" transform="scale(0.015625)"/>
       </defs>
       <use xlink:href="#DejaVuSans-35"/>
      </g>
     </g>
    </g>
    <g id="xtick_2">
     <g id="line2d_2">
      <g>
       <use xlink:href="#ma436c41eb8" x="147.411552" y="256.32" style="stroke: #000000; stroke-width: 0.8"/>
      </g>
     </g>
     <g id="text_2">
      <!-- 6 -->
      <g transform="translate(144.230302 270.918437) scale(0.1 -0.1)">
       <defs>
        <path id="DejaVuSans-36" d="M 2113 2584 
Q 1688 2584 1439 2293 
Q 1191 2003 1191 1497 
Q 1191 994 1439 701 
Q 1688 409 2113 409 
Q 2538 409 2786 701 
Q 3034 994 3034 1497 
Q 3034 2003 2786 2293 
Q 2538 2584 2113 2584 
z
M 3366 4563 
L 3366 3988 
Q 3128 4100 2886 4159 
Q 2644 4219 2406 4219 
Q 1781 4219 1451 3797 
Q 1122 3375 1075 2522 
Q 1259 2794 1537 2939 
Q 1816 3084 2150 3084 
Q 2853 3084 3261 2657 
Q 3669 2231 3669 1497 
Q 3669 778 3244 343 
Q 2819 -91 2113 -91 
Q 1303 -91 875 529 
Q 447 1150 447 2328 
Q 447 3434 972 4092 
Q 1497 4750 2381 4750 
Q 2619 4750 2861 4703 
Q 3103 4656 3366 4563 
z
" transform="scale(0.015625)"/>
       </defs>
       <use xlink:href="#DejaVuSans-36"/>
      </g>
     </g>
    </g>
    <g id="xtick_3">
     <g id="line2d_3">
      <g>
       <use xlink:href="#ma436c41eb8" x="187.700361" y="256.32" style="stroke: #000000; stroke-width: 0.8"/>
      </g>
     </g>
     <g id="text_3">
      <!-- 7 -->
      <g transform="translate(184.519111 270.918437) scale(0.1 -0.1)">
       <defs>
        <path id="DejaVuSans-37" d="M 525 4666 
L 3525 4666 
L 3525 4397 
L 1831 0 
L 1172 0 
L 2766 4134 
L 525 4134 
L 525 4666 
z
" transform="scale(0.015625)"/>
       </defs>
       <use xlink:href="#DejaVuSans-37"/>
      </g>
     </g>
    </g>
    <g id="xtick_4">
     <g id="line2d_4">
      <g>
       <use xlink:href="#ma436c41eb8" x="227.98917" y="256.32" style="stroke: #000000; stroke-width: 0.8"/>
      </g>
     </g>
     <g id="text_4">
      <!-- 8 -->
      <g transform="translate(224.80792 270.918437) scale(0.1 -0.1)">
       <defs>
        <path id="DejaVuSans-38" d="M 2034 2216 
Q 1584 2216 1326 1975 
Q 1069 1734 1069 1313 
Q 1069 891 1326 650 
Q 1584 409 2034 409 
Q 2484 409 2743 651 
Q 3003 894 3003 1313 
Q 3003 1734 2745 1975 
Q 2488 2216 2034 2216 
z
M 1403 2484 
Q 997 2584 770 2862 
Q 544 3141 544 3541 
Q 544 4100 942 4425 
Q 1341 4750 2034 4750 
Q 2731 4750 3128 4425 
Q 3525 4100 3525 3541 
Q 3525 3141 3298 2862 
Q 3072 2584 2669 2484 
Q 3125 2378 3379 2068 
Q 3634 1759 3634 1313 
Q 3634 634 3220 271 
Q 2806 -91 2034 -91 
Q 1263 -91 848 271 
Q 434 634 434 1313 
Q 434 1759 690 2068 
Q 947 2378 1403 2484 
z
M 1172 3481 
Q 1172 3119 1398 2916 
Q 1625 2713 2034 2713 
Q 2441 2713 2670 2916 
Q 2900 3119 2900 3481 
Q 2900 3844 2670 4047 
Q 2441 4250 2034 4250 
Q 1625 4250 1398 4047 
Q 1172 3844 1172 3481 
z
" transform="scale(0.015625)"/>
       </defs>
       <use xlink:href="#DejaVuSans-38"/>
      </g>
     </g>
    </g>
    <g id="xtick_5">
     <g id="line2d_5">
      <g>
       <use xlink:href="#ma436c41eb8" x="268.277978" y="256.32" style="stroke: #000000; stroke-width: 0.8"/>
      </g>
     </g>
     <g id="text_5">
      <!-- 9 -->
      <g transform="translate(265.096728 270.918437) scale(0.1 -0.1)">
       <defs>
        <path id="DejaVuSans-39" d="M 703 97 
L 703 672 
Q 941 559 1184 500 
Q 1428 441 1663 441 
Q 2288 441 2617 861 
Q 2947 1281 2994 2138 
Q 2813 1869 2534 1725 
Q 2256 1581 1919 1581 
Q 1219 1581 811 2004 
Q 403 2428 403 3163 
Q 403 3881 828 4315 
Q 1253 4750 1959 4750 
Q 2769 4750 3195 4129 
Q 3622 3509 3622 2328 
Q 3622 1225 3098 567 
Q 2575 -91 1691 -91 
Q 1453 -91 1209 -44 
Q 966 3 703 97 
z
M 1959 2075 
Q 2384 2075 2632 2365 
Q 2881 2656 2881 3163 
Q 2881 3666 2632 3958 
Q 2384 4250 1959 4250 
Q 1534 4250 1286 3958 
Q 1038 3666 1038 3163 
Q 1038 2656 1286 2365 
Q 1534 2075 1959 2075 
z
" transform="scale(0.015625)"/>
       </defs>
       <use xlink:href="#DejaVuSans-39"/>
      </g>
     </g>
    </g>
    <g id="xtick_6">
     <g id="line2d_6">
      <g>
       <use xlink:href="#ma436c41eb8" x="308.566787" y="256.32" style="stroke: #000000; stroke-width: 0.8"/>
      </g>
     </g>
     <g id="text_6">
      <!-- 10 -->
      <g transform="translate(302.204287 270.918437) scale(0.1 -0.1)">
       <defs>
        <path id="DejaVuSans-31" d="M 794 531 
L 1825 531 
L 1825 4091 
L 703 3866 
L 703 4441 
L 1819 4666 
L 2450 4666 
L 2450 531 
L 3481 531 
L 3481 0 
L 794 0 
L 794 531 
z
" transform="scale(0.015625)"/>
        <path id="DejaVuSans-30" d="M 2034 4250 
Q 1547 4250 1301 3770 
Q 1056 3291 1056 2328 
Q 1056 1369 1301 889 
Q 1547 409 2034 409 
Q 2525 409 2770 889 
Q 3016 1369 3016 2328 
Q 3016 3291 2770 3770 
Q 2525 4250 2034 4250 
z
M 2034 4750 
Q 2819 4750 3233 4129 
Q 3647 3509 3647 2328 
Q 3647 1150 3233 529 
Q 2819 -91 2034 -91 
Q 1250 -91 836 529 
Q 422 1150 422 2328 
Q 422 3509 836 4129 
Q 1250 4750 2034 4750 
z
" transform="scale(0.015625)"/>
       </defs>
       <use xlink:href="#DejaVuSans-31"/>
       <use xlink:href="#DejaVuSans-30" x="63.623047"/>
      </g>
     </g>
    </g>
    <g id="xtick_7">
     <g id="line2d_7">
      <g>
       <use xlink:href="#ma436c41eb8" x="348.855596" y="256.32" style="stroke: #000000; stroke-width: 0.8"/>
      </g>
     </g>
     <g id="text_7">
      <!-- 11 -->
      <g transform="translate(342.493096 270.918437) scale(0.1 -0.1)">
       <use xlink:href="#DejaVuSans-31"/>
       <use xlink:href="#DejaVuSans-31" x="63.623047"/>
      </g>
     </g>
    </g>
    <g id="xtick_8">
     <g id="line2d_8">
      <g>
       <use xlink:href="#ma436c41eb8" x="389.144404" y="256.32" style="stroke: #000000; stroke-width: 0.8"/>
      </g>
     </g>
     <g id="text_8">
      <!-- 12 -->
      <g transform="translate(382.781904 270.918437) scale(0.1 -0.1)">
       <defs>
        <path id="DejaVuSans-32" d="M 1228 531 
L 3431 531 
L 3431 0 
L 469 0 
L 469 531 
Q 828 903 1448 1529 
Q 2069 2156 2228 2338 
Q 2531 2678 2651 2914 
Q 2772 3150 2772 3378 
Q 2772 3750 2511 3984 
Q 2250 4219 1831 4219 
Q 1534 4219 1204 4116 
Q 875 4013 500 3803 
L 500 4441 
Q 881 4594 1212 4672 
Q 1544 4750 1819 4750 
Q 2544 4750 2975 4387 
Q 3406 4025 3406 3419 
Q 3406 3131 3298 2873 
Q 3191 2616 2906 2266 
Q 2828 2175 2409 1742 
Q 1991 1309 1228 531 
z
" transform="scale(0.015625)"/>
       </defs>
       <use xlink:href="#DejaVuSans-31"/>
       <use xlink:href="#DejaVuSans-32" x="63.623047"/>
      </g>
     </g>
    </g>
    <g id="xtick_9">
     <g id="line2d_9">
      <g>
       <use xlink:href="#ma436c41eb8" x="429.433213" y="256.32" style="stroke: #000000; stroke-width: 0.8"/>
      </g>
     </g>
     <g id="text_9">
      <!-- 13 -->
      <g transform="translate(423.070713 270.918437) scale(0.1 -0.1)">
       <defs>
        <path id="DejaVuSans-33" d="M 2597 2516 
Q 3050 2419 3304 2112 
Q 3559 1806 3559 1356 
Q 3559 666 3084 287 
Q 2609 -91 1734 -91 
Q 1441 -91 1130 -33 
Q 819 25 488 141 
L 488 750 
Q 750 597 1062 519 
Q 1375 441 1716 441 
Q 2309 441 2620 675 
Q 2931 909 2931 1356 
Q 2931 1769 2642 2001 
Q 2353 2234 1838 2234 
L 1294 2234 
L 1294 2753 
L 1863 2753 
Q 2328 2753 2575 2939 
Q 2822 3125 2822 3475 
Q 2822 3834 2567 4026 
Q 2313 4219 1838 4219 
Q 1578 4219 1281 4162 
Q 984 4106 628 3988 
L 628 4550 
Q 988 4650 1302 4700 
Q 1616 4750 1894 4750 
Q 2613 4750 3031 4423 
Q 3450 4097 3450 3541 
Q 3450 3153 3228 2886 
Q 3006 2619 2597 2516 
z
" transform="scale(0.015625)"/>
       </defs>
       <use xlink:href="#DejaVuSans-31"/>
       <use xlink:href="#DejaVuSans-33" x="63.623047"/>
      </g>
     </g>
    </g>
    <g id="xtick_10">
     <g id="line2d_10">
      <g>
       <use xlink:href="#ma436c41eb8" x="469.722022" y="256.32" style="stroke: #000000; stroke-width: 0.8"/>
      </g>
     </g>
     <g id="text_10">
      <!-- 14 -->
      <g transform="translate(463.359522 270.918437) scale(0.1 -0.1)">
       <defs>
        <path id="DejaVuSans-34" d="M 2419 4116 
L 825 1625 
L 2419 1625 
L 2419 4116 
z
M 2253 4666 
L 3047 4666 
L 3047 1625 
L 3713 1625 
L 3713 1100 
L 3047 1100 
L 3047 0 
L 2419 0 
L 2419 1100 
L 313 1100 
L 313 1709 
L 2253 4666 
z
" transform="scale(0.015625)"/>
       </defs>
       <use xlink:href="#DejaVuSans-31"/>
       <use xlink:href="#DejaVuSans-34" x="63.623047"/>
      </g>
     </g>
    </g>
    <g id="xtick_11">
     <g id="line2d_11">
      <g>
       <use xlink:href="#ma436c41eb8" x="510.01083" y="256.32" style="stroke: #000000; stroke-width: 0.8"/>
      </g>
     </g>
     <g id="text_11">
      <!-- 15 -->
      <g transform="translate(503.64833 270.918437) scale(0.1 -0.1)">
       <use xlink:href="#DejaVuSans-31"/>
       <use xlink:href="#DejaVuSans-35" x="63.623047"/>
      </g>
     </g>
    </g>
    <g id="xtick_12">
     <g id="line2d_12">
      <g>
       <use xlink:href="#ma436c41eb8" x="550.299639" y="256.32" style="stroke: #000000; stroke-width: 0.8"/>
      </g>
     </g>
     <g id="text_12">
      <!-- 16 -->
      <g transform="translate(543.937139 270.918437) scale(0.1 -0.1)">
       <use xlink:href="#DejaVuSans-31"/>
       <use xlink:href="#DejaVuSans-36" x="63.623047"/>
      </g>
     </g>
    </g>
    <g id="xtick_13">
     <g id="line2d_13">
      <g>
       <use xlink:href="#ma436c41eb8" x="590.588448" y="256.32" style="stroke: #000000; stroke-width: 0.8"/>
      </g>
     </g>
     <g id="text_13">
      <!-- 17 -->
      <g transform="translate(584.225948 270.918437) scale(0.1 -0.1)">
       <use xlink:href="#DejaVuSans-31"/>
       <use xlink:href="#DejaVuSans-37" x="63.623047"/>
      </g>
     </g>
    </g>
    <g id="xtick_14">
     <g id="line2d_14">
      <g>
       <use xlink:href="#ma436c41eb8" x="630.877256" y="256.32" style="stroke: #000000; stroke-width: 0.8"/>
      </g>
     </g>
     <g id="text_14">
      <!-- 18 -->
      <g transform="translate(624.514756 270.918437) scale(0.1 -0.1)">
       <use xlink:href="#DejaVuSans-31"/>
       <use xlink:href="#DejaVuSans-38" x="63.623047"/>
      </g>
     </g>
    </g>
    <g id="text_15">
     <!-- # Matrix Rows -->
     <g transform="translate(332.8875 284.596563) scale(0.1 -0.1)">
      <defs>
       <path id="DejaVuSans-23" d="M 3272 2816 
L 2363 2816 
L 2100 1772 
L 3016 1772 
L 3272 2816 
z
M 2803 4594 
L 2478 3297 
L 3391 3297 
L 3719 4594 
L 4219 4594 
L 3897 3297 
L 4872 3297 
L 4872 2816 
L 3775 2816 
L 3519 1772 
L 4513 1772 
L 4513 1294 
L 3397 1294 
L 3072 0 
L 2572 0 
L 2894 1294 
L 1978 1294 
L 1656 0 
L 1153 0 
L 1478 1294 
L 494 1294 
L 494 1772 
L 1594 1772 
L 1856 2816 
L 850 2816 
L 850 3297 
L 1978 3297 
L 2297 4594 
L 2803 4594 
z
" transform="scale(0.015625)"/>
       <path id="DejaVuSans-20" transform="scale(0.015625)"/>
       <path id="DejaVuSans-4d" d="M 628 4666 
L 1569 4666 
L 2759 1491 
L 3956 4666 
L 4897 4666 
L 4897 0 
L 4281 0 
L 4281 4097 
L 3078 897 
L 2444 897 
L 1241 4097 
L 1241 0 
L 628 0 
L 628 4666 
z
" transform="scale(0.015625)"/>
       <path id="DejaVuSans-61" d="M 2194 1759 
Q 1497 1759 1228 1600 
Q 959 1441 959 1056 
Q 959 750 1161 570 
Q 1363 391 1709 391 
Q 2188 391 2477 730 
Q 2766 1069 2766 1631 
L 2766 1759 
L 2194 1759 
z
M 3341 1997 
L 3341 0 
L 2766 0 
L 2766 531 
Q 2569 213 2275 61 
Q 1981 -91 1556 -91 
Q 1019 -91 701 211 
Q 384 513 384 1019 
Q 384 1609 779 1909 
Q 1175 2209 1959 2209 
L 2766 2209 
L 2766 2266 
Q 2766 2663 2505 2880 
Q 2244 3097 1772 3097 
Q 1472 3097 1187 3025 
Q 903 2953 641 2809 
L 641 3341 
Q 956 3463 1253 3523 
Q 1550 3584 1831 3584 
Q 2591 3584 2966 3190 
Q 3341 2797 3341 1997 
z
" transform="scale(0.015625)"/>
       <path id="DejaVuSans-74" d="M 1172 4494 
L 1172 3500 
L 2356 3500 
L 2356 3053 
L 1172 3053 
L 1172 1153 
Q 1172 725 1289 603 
Q 1406 481 1766 481 
L 2356 481 
L 2356 0 
L 1766 0 
Q 1100 0 847 248 
Q 594 497 594 1153 
L 594 3053 
L 172 3053 
L 172 3500 
L 594 3500 
L 594 4494 
L 1172 4494 
z
" transform="scale(0.015625)"/>
       <path id="DejaVuSans-72" d="M 2631 2963 
Q 2534 3019 2420 3045 
Q 2306 3072 2169 3072 
Q 1681 3072 1420 2755 
Q 1159 2438 1159 1844 
L 1159 0 
L 581 0 
L 581 3500 
L 1159 3500 
L 1159 2956 
Q 1341 3275 1631 3429 
Q 1922 3584 2338 3584 
Q 2397 3584 2469 3576 
Q 2541 3569 2628 3553 
L 2631 2963 
z
" transform="scale(0.015625)"/>
       <path id="DejaVuSans-69" d="M 603 3500 
L 1178 3500 
L 1178 0 
L 603 0 
L 603 3500 
z
M 603 4863 
L 1178 4863 
L 1178 4134 
L 603 4134 
L 603 4863 
z
" transform="scale(0.015625)"/>
       <path id="DejaVuSans-78" d="M 3513 3500 
L 2247 1797 
L 3578 0 
L 2900 0 
L 1881 1375 
L 863 0 
L 184 0 
L 1544 1831 
L 300 3500 
L 978 3500 
L 1906 2253 
L 2834 3500 
L 3513 3500 
z
" transform="scale(0.015625)"/>
       <path id="DejaVuSans-52" d="M 2841 2188 
Q 3044 2119 3236 1894 
Q 3428 1669 3622 1275 
L 4263 0 
L 3584 0 
L 2988 1197 
Q 2756 1666 2539 1819 
Q 2322 1972 1947 1972 
L 1259 1972 
L 1259 0 
L 628 0 
L 628 4666 
L 2053 4666 
Q 2853 4666 3247 4331 
Q 3641 3997 3641 3322 
Q 3641 2881 3436 2590 
Q 3231 2300 2841 2188 
z
M 1259 4147 
L 1259 2491 
L 2053 2491 
Q 2509 2491 2742 2702 
Q 2975 2913 2975 3322 
Q 2975 3731 2742 3939 
Q 2509 4147 2053 4147 
L 1259 4147 
z
" transform="scale(0.015625)"/>
       <path id="DejaVuSans-6f" d="M 1959 3097 
Q 1497 3097 1228 2736 
Q 959 2375 959 1747 
Q 959 1119 1226 758 
Q 1494 397 1959 397 
Q 2419 397 2687 759 
Q 2956 1122 2956 1747 
Q 2956 2369 2687 2733 
Q 2419 3097 1959 3097 
z
M 1959 3584 
Q 2709 3584 3137 3096 
Q 3566 2609 3566 1747 
Q 3566 888 3137 398 
Q 2709 -91 1959 -91 
Q 1206 -91 779 398 
Q 353 888 353 1747 
Q 353 2609 779 3096 
Q 1206 3584 1959 3584 
z
" transform="scale(0.015625)"/>
       <path id="DejaVuSans-77" d="M 269 3500 
L 844 3500 
L 1563 769 
L 2278 3500 
L 2956 3500 
L 3675 769 
L 4391 3500 
L 4966 3500 
L 4050 0 
L 3372 0 
L 2619 2869 
L 1863 0 
L 1184 0 
L 269 3500 
z
" transform="scale(0.015625)"/>
       <path id="DejaVuSans-73" d="M 2834 3397 
L 2834 2853 
Q 2591 2978 2328 3040 
Q 2066 3103 1784 3103 
Q 1356 3103 1142 2972 
Q 928 2841 928 2578 
Q 928 2378 1081 2264 
Q 1234 2150 1697 2047 
L 1894 2003 
Q 2506 1872 2764 1633 
Q 3022 1394 3022 966 
Q 3022 478 2636 193 
Q 2250 -91 1575 -91 
Q 1294 -91 989 -36 
Q 684 19 347 128 
L 347 722 
Q 666 556 975 473 
Q 1284 391 1588 391 
Q 1994 391 2212 530 
Q 2431 669 2431 922 
Q 2431 1156 2273 1281 
Q 2116 1406 1581 1522 
L 1381 1569 
Q 847 1681 609 1914 
Q 372 2147 372 2553 
Q 372 3047 722 3315 
Q 1072 3584 1716 3584 
Q 2034 3584 2315 3537 
Q 2597 3491 2834 3397 
z
" transform="scale(0.015625)"/>
      </defs>
      <use xlink:href="#DejaVuSans-23"/>
      <use xlink:href="#DejaVuSans-20" x="83.789062"/>
      <use xlink:href="#DejaVuSans-4d" x="115.576172"/>
      <use xlink:href="#DejaVuSans-61" x="201.855469"/>
      <use xlink:href="#DejaVuSans-74" x="263.134766"/>
      <use xlink:href="#DejaVuSans-72" x="302.34375"/>
      <use xlink:href="#DejaVuSans-69" x="343.457031"/>
      <use xlink:href="#DejaVuSans-78" x="371.240234"/>
      <use xlink:href="#DejaVuSans-20" x="430.419922"/>
      <use xlink:href="#DejaVuSans-52" x="462.207031"/>
      <use xlink:href="#DejaVuSans-6f" x="527.189453"/>
      <use xlink:href="#DejaVuSans-77" x="588.371094"/>
      <use xlink:href="#DejaVuSans-73" x="670.158203"/>
     </g>
    </g>
   </g>
   <g id="matplotlib.axis_2">
    <g id="ytick_1">
     <g id="line2d_15">
      <defs>
       <path id="mb86b4ed748" d="M 0 0 
L -3.5 0 
" style="stroke: #000000; stroke-width: 0.8"/>
      </defs>
      <g>
       <use xlink:href="#mb86b4ed748" x="90" y="221.75417" style="stroke: #000000; stroke-width: 0.8"/>
      </g>
     </g>
     <g id="text_16">
      <!-- 50 -->
      <g transform="translate(70.275 225.553389) scale(0.1 -0.1)">
       <use xlink:href="#DejaVuSans-35"/>
       <use xlink:href="#DejaVuSans-30" x="63.623047"/>
      </g>
     </g>
    </g>
    <g id="ytick_2">
     <g id="line2d_16">
      <g>
       <use xlink:href="#mb86b4ed748" x="90" y="180.944453" style="stroke: #000000; stroke-width: 0.8"/>
      </g>
     </g>
     <g id="text_17">
      <!-- 100 -->
      <g transform="translate(63.9125 184.743672) scale(0.1 -0.1)">
       <use xlink:href="#DejaVuSans-31"/>
       <use xlink:href="#DejaVuSans-30" x="63.623047"/>
       <use xlink:href="#DejaVuSans-30" x="127.246094"/>
      </g>
     </g>
    </g>
    <g id="ytick_3">
     <g id="line2d_17">
      <g>
       <use xlink:href="#mb86b4ed748" x="90" y="140.134737" style="stroke: #000000; stroke-width: 0.8"/>
      </g>
     </g>
     <g id="text_18">
      <!-- 150 -->
      <g transform="translate(63.9125 143.933956) scale(0.1 -0.1)">
       <use xlink:href="#DejaVuSans-31"/>
       <use xlink:href="#DejaVuSans-35" x="63.623047"/>
       <use xlink:href="#DejaVuSans-30" x="127.246094"/>
      </g>
     </g>
    </g>
    <g id="ytick_4">
     <g id="line2d_18">
      <g>
       <use xlink:href="#mb86b4ed748" x="90" y="99.32502" style="stroke: #000000; stroke-width: 0.8"/>
      </g>
     </g>
     <g id="text_19">
      <!-- 200 -->
      <g transform="translate(63.9125 103.124239) scale(0.1 -0.1)">
       <use xlink:href="#DejaVuSans-32"/>
       <use xlink:href="#DejaVuSans-30" x="63.623047"/>
       <use xlink:href="#DejaVuSans-30" x="127.246094"/>
      </g>
     </g>
    </g>
    <g id="ytick_5">
     <g id="line2d_19">
      <g>
       <use xlink:href="#mb86b4ed748" x="90" y="58.515304" style="stroke: #000000; stroke-width: 0.8"/>
      </g>
     </g>
     <g id="text_20">
      <!-- 250 -->
      <g transform="translate(63.9125 62.314522) scale(0.1 -0.1)">
       <use xlink:href="#DejaVuSans-32"/>
       <use xlink:href="#DejaVuSans-35" x="63.623047"/>
       <use xlink:href="#DejaVuSans-30" x="127.246094"/>
      </g>
     </g>
    </g>
    <g id="text_21">
     <!-- # Comparisons between Matrix entries -->
     <g transform="translate(57.832812 243.222813) rotate(-90) scale(0.1 -0.1)">
      <defs>
       <path id="DejaVuSans-43" d="M 4122 4306 
L 4122 3641 
Q 3803 3938 3442 4084 
Q 3081 4231 2675 4231 
Q 1875 4231 1450 3742 
Q 1025 3253 1025 2328 
Q 1025 1406 1450 917 
Q 1875 428 2675 428 
Q 3081 428 3442 575 
Q 3803 722 4122 1019 
L 4122 359 
Q 3791 134 3420 21 
Q 3050 -91 2638 -91 
Q 1578 -91 968 557 
Q 359 1206 359 2328 
Q 359 3453 968 4101 
Q 1578 4750 2638 4750 
Q 3056 4750 3426 4639 
Q 3797 4528 4122 4306 
z
" transform="scale(0.015625)"/>
       <path id="DejaVuSans-6d" d="M 3328 2828 
Q 3544 3216 3844 3400 
Q 4144 3584 4550 3584 
Q 5097 3584 5394 3201 
Q 5691 2819 5691 2113 
L 5691 0 
L 5113 0 
L 5113 2094 
Q 5113 2597 4934 2840 
Q 4756 3084 4391 3084 
Q 3944 3084 3684 2787 
Q 3425 2491 3425 1978 
L 3425 0 
L 2847 0 
L 2847 2094 
Q 2847 2600 2669 2842 
Q 2491 3084 2119 3084 
Q 1678 3084 1418 2786 
Q 1159 2488 1159 1978 
L 1159 0 
L 581 0 
L 581 3500 
L 1159 3500 
L 1159 2956 
Q 1356 3278 1631 3431 
Q 1906 3584 2284 3584 
Q 2666 3584 2933 3390 
Q 3200 3197 3328 2828 
z
" transform="scale(0.015625)"/>
       <path id="DejaVuSans-70" d="M 1159 525 
L 1159 -1331 
L 581 -1331 
L 581 3500 
L 1159 3500 
L 1159 2969 
Q 1341 3281 1617 3432 
Q 1894 3584 2278 3584 
Q 2916 3584 3314 3078 
Q 3713 2572 3713 1747 
Q 3713 922 3314 415 
Q 2916 -91 2278 -91 
Q 1894 -91 1617 61 
Q 1341 213 1159 525 
z
M 3116 1747 
Q 3116 2381 2855 2742 
Q 2594 3103 2138 3103 
Q 1681 3103 1420 2742 
Q 1159 2381 1159 1747 
Q 1159 1113 1420 752 
Q 1681 391 2138 391 
Q 2594 391 2855 752 
Q 3116 1113 3116 1747 
z
" transform="scale(0.015625)"/>
       <path id="DejaVuSans-6e" d="M 3513 2113 
L 3513 0 
L 2938 0 
L 2938 2094 
Q 2938 2591 2744 2837 
Q 2550 3084 2163 3084 
Q 1697 3084 1428 2787 
Q 1159 2491 1159 1978 
L 1159 0 
L 581 0 
L 581 3500 
L 1159 3500 
L 1159 2956 
Q 1366 3272 1645 3428 
Q 1925 3584 2291 3584 
Q 2894 3584 3203 3211 
Q 3513 2838 3513 2113 
z
" transform="scale(0.015625)"/>
       <path id="DejaVuSans-62" d="M 3116 1747 
Q 3116 2381 2855 2742 
Q 2594 3103 2138 3103 
Q 1681 3103 1420 2742 
Q 1159 2381 1159 1747 
Q 1159 1113 1420 752 
Q 1681 391 2138 391 
Q 2594 391 2855 752 
Q 3116 1113 3116 1747 
z
M 1159 2969 
Q 1341 3281 1617 3432 
Q 1894 3584 2278 3584 
Q 2916 3584 3314 3078 
Q 3713 2572 3713 1747 
Q 3713 922 3314 415 
Q 2916 -91 2278 -91 
Q 1894 -91 1617 61 
Q 1341 213 1159 525 
L 1159 0 
L 581 0 
L 581 4863 
L 1159 4863 
L 1159 2969 
z
" transform="scale(0.015625)"/>
       <path id="DejaVuSans-65" d="M 3597 1894 
L 3597 1613 
L 953 1613 
Q 991 1019 1311 708 
Q 1631 397 2203 397 
Q 2534 397 2845 478 
Q 3156 559 3463 722 
L 3463 178 
Q 3153 47 2828 -22 
Q 2503 -91 2169 -91 
Q 1331 -91 842 396 
Q 353 884 353 1716 
Q 353 2575 817 3079 
Q 1281 3584 2069 3584 
Q 2775 3584 3186 3129 
Q 3597 2675 3597 1894 
z
M 3022 2063 
Q 3016 2534 2758 2815 
Q 2500 3097 2075 3097 
Q 1594 3097 1305 2825 
Q 1016 2553 972 2059 
L 3022 2063 
z
" transform="scale(0.015625)"/>
      </defs>
      <use xlink:href="#DejaVuSans-23"/>
      <use xlink:href="#DejaVuSans-20" x="83.789062"/>
      <use xlink:href="#DejaVuSans-43" x="115.576172"/>
      <use xlink:href="#DejaVuSans-6f" x="185.400391"/>
      <use xlink:href="#DejaVuSans-6d" x="246.582031"/>
      <use xlink:href="#DejaVuSans-70" x="343.994141"/>
      <use xlink:href="#DejaVuSans-61" x="407.470703"/>
      <use xlink:href="#DejaVuSans-72" x="468.75"/>
      <use xlink:href="#DejaVuSans-69" x="509.863281"/>
      <use xlink:href="#DejaVuSans-73" x="537.646484"/>
      <use xlink:href="#DejaVuSans-6f" x="589.746094"/>
      <use xlink:href="#DejaVuSans-6e" x="650.927734"/>
      <use xlink:href="#DejaVuSans-73" x="714.306641"/>
      <use xlink:href="#DejaVuSans-20" x="766.40625"/>
      <use xlink:href="#DejaVuSans-62" x="798.193359"/>
      <use xlink:href="#DejaVuSans-65" x="861.669922"/>
      <use xlink:href="#DejaVuSans-74" x="923.193359"/>
      <use xlink:href="#DejaVuSans-77" x="962.402344"/>
      <use xlink:href="#DejaVuSans-65" x="1044.189453"/>
      <use xlink:href="#DejaVuSans-65" x="1105.712891"/>
      <use xlink:href="#DejaVuSans-6e" x="1167.236328"/>
      <use xlink:href="#DejaVuSans-20" x="1230.615234"/>
      <use xlink:href="#DejaVuSans-4d" x="1262.402344"/>
      <use xlink:href="#DejaVuSans-61" x="1348.681641"/>
      <use xlink:href="#DejaVuSans-74" x="1409.960938"/>
      <use xlink:href="#DejaVuSans-72" x="1449.169922"/>
      <use xlink:href="#DejaVuSans-69" x="1490.283203"/>
      <use xlink:href="#DejaVuSans-78" x="1518.066406"/>
      <use xlink:href="#DejaVuSans-20" x="1577.246094"/>
      <use xlink:href="#DejaVuSans-65" x="1609.033203"/>
      <use xlink:href="#DejaVuSans-6e" x="1670.556641"/>
      <use xlink:href="#DejaVuSans-74" x="1733.935547"/>
      <use xlink:href="#DejaVuSans-72" x="1773.144531"/>
      <use xlink:href="#DejaVuSans-69" x="1814.257812"/>
      <use xlink:href="#DejaVuSans-65" x="1842.041016"/>
      <use xlink:href="#DejaVuSans-73" x="1903.564453"/>
     </g>
    </g>
   </g>
   <g id="patch_3">
    <path d="M 94.028881 242.975223 
L 106.115523 242.975223 
L 106.115523 241.585967 
L 103.093863 241.342834 
L 106.115523 241.099701 
L 106.115523 240.52664 
L 94.028881 240.52664 
L 94.028881 241.099701 
L 97.050542 241.342834 
L 94.028881 241.585967 
L 94.028881 242.975223 
z
" clip-path="url(#p8df27e212d)" style="fill: #0504aa; stroke: #000000; stroke-linejoin: miter"/>
   </g>
   <g id="line2d_20">
    <path d="M 100.072202 242.975223 
L 100.072202 246.24 
" clip-path="url(#p8df27e212d)" style="fill: none; stroke: #000000; stroke-linecap: square"/>
   </g>
   <g id="line2d_21">
    <path d="M 100.072202 240.52664 
L 100.072202 237.261862 
" clip-path="url(#p8df27e212d)" style="fill: none; stroke: #000000; stroke-linecap: square"/>
   </g>
   <g id="line2d_22">
    <path d="M 97.050542 246.24 
L 103.093863 246.24 
" clip-path="url(#p8df27e212d)" style="fill: none; stroke: #000000; stroke-linecap: square"/>
   </g>
   <g id="line2d_23">
    <path d="M 97.050542 237.261862 
L 103.093863 237.261862 
" clip-path="url(#p8df27e212d)" style="fill: none; stroke: #000000; stroke-linecap: square"/>
   </g>
   <g id="patch_4">
    <path d="M 134.31769 235.629474 
L 146.404332 235.629474 
L 146.404332 233.586113 
L 143.382671 233.180891 
L 146.404332 232.775668 
L 146.404332 231.548502 
L 134.31769 231.548502 
L 134.31769 232.775668 
L 137.33935 233.180891 
L 134.31769 233.586113 
L 134.31769 235.629474 
z
" clip-path="url(#p8df27e212d)" style="fill: #0504aa; stroke: #000000; stroke-linejoin: miter"/>
   </g>
   <g id="line2d_24">
    <path d="M 140.361011 235.629474 
L 140.361011 241.342834 
" clip-path="url(#p8df27e212d)" style="fill: none; stroke: #000000; stroke-linecap: square"/>
   </g>
   <g id="line2d_25">
    <path d="M 140.361011 231.548502 
L 140.361011 227.46753 
" clip-path="url(#p8df27e212d)" style="fill: none; stroke: #000000; stroke-linecap: square"/>
   </g>
   <g id="line2d_26">
    <path d="M 137.33935 241.342834 
L 143.382671 241.342834 
" clip-path="url(#p8df27e212d)" style="fill: none; stroke: #000000; stroke-linecap: square"/>
   </g>
   <g id="line2d_27">
    <path d="M 137.33935 227.46753 
L 143.382671 227.46753 
" clip-path="url(#p8df27e212d)" style="fill: none; stroke: #000000; stroke-linecap: square"/>
   </g>
   <g id="patch_5">
    <path d="M 174.606498 227.46753 
L 186.693141 227.46753 
L 186.693141 225.505214 
L 183.67148 225.018947 
L 186.693141 224.532681 
L 186.693141 222.570364 
L 174.606498 222.570364 
L 174.606498 224.532681 
L 177.628159 225.018947 
L 174.606498 225.505214 
L 174.606498 227.46753 
z
" clip-path="url(#p8df27e212d)" style="fill: #0504aa; stroke: #000000; stroke-linejoin: miter"/>
   </g>
   <g id="line2d_28">
    <path d="M 180.649819 227.46753 
L 180.649819 234.813279 
" clip-path="url(#p8df27e212d)" style="fill: none; stroke: #000000; stroke-linecap: square"/>
   </g>
   <g id="line2d_29">
    <path d="M 180.649819 222.570364 
L 180.649819 216.04081 
" clip-path="url(#p8df27e212d)" style="fill: none; stroke: #000000; stroke-linecap: square"/>
   </g>
   <g id="line2d_30">
    <path d="M 177.628159 234.813279 
L 183.67148 234.813279 
" clip-path="url(#p8df27e212d)" style="fill: none; stroke: #000000; stroke-linecap: square"/>
   </g>
   <g id="line2d_31">
    <path d="M 177.628159 216.04081 
L 183.67148 216.04081 
" clip-path="url(#p8df27e212d)" style="fill: none; stroke: #000000; stroke-linecap: square"/>
   </g>
   <g id="patch_6">
    <path d="M 214.895307 217.673198 
L 226.981949 217.673198 
L 226.981949 214.975732 
L 223.960289 214.408421 
L 226.981949 213.84111 
L 226.981949 211.959838 
L 214.895307 211.959838 
L 214.895307 213.84111 
L 217.916968 214.408421 
L 214.895307 214.975732 
L 214.895307 217.673198 
z
" clip-path="url(#p8df27e212d)" style="fill: #0504aa; stroke: #000000; stroke-linejoin: miter"/>
   </g>
   <g id="line2d_32">
    <path d="M 220.938628 217.673198 
L 220.938628 225.835142 
" clip-path="url(#p8df27e212d)" style="fill: none; stroke: #000000; stroke-linecap: square"/>
   </g>
   <g id="line2d_33">
    <path d="M 220.938628 211.959838 
L 220.938628 204.614089 
" clip-path="url(#p8df27e212d)" style="fill: none; stroke: #000000; stroke-linecap: square"/>
   </g>
   <g id="line2d_34">
    <path d="M 217.916968 225.835142 
L 223.960289 225.835142 
" clip-path="url(#p8df27e212d)" style="fill: none; stroke: #000000; stroke-linecap: square"/>
   </g>
   <g id="line2d_35">
    <path d="M 217.916968 204.614089 
L 223.960289 204.614089 
" clip-path="url(#p8df27e212d)" style="fill: none; stroke: #000000; stroke-linecap: square"/>
   </g>
   <g id="patch_7">
    <path d="M 255.184116 206.246478 
L 267.270758 206.246478 
L 267.270758 202.894906 
L 264.249097 202.165506 
L 267.270758 201.436106 
L 267.270758 198.900729 
L 255.184116 198.900729 
L 255.184116 201.436106 
L 258.205776 202.165506 
L 255.184116 202.894906 
L 255.184116 206.246478 
z
" clip-path="url(#p8df27e212d)" style="fill: #0504aa; stroke: #000000; stroke-linejoin: miter"/>
   </g>
   <g id="line2d_36">
    <path d="M 261.227437 206.246478 
L 261.227437 216.04081 
" clip-path="url(#p8df27e212d)" style="fill: none; stroke: #000000; stroke-linecap: square"/>
   </g>
   <g id="line2d_37">
    <path d="M 261.227437 198.900729 
L 261.227437 193.187368 
" clip-path="url(#p8df27e212d)" style="fill: none; stroke: #000000; stroke-linecap: square"/>
   </g>
   <g id="line2d_38">
    <path d="M 258.205776 216.04081 
L 264.249097 216.04081 
" clip-path="url(#p8df27e212d)" style="fill: none; stroke: #000000; stroke-linecap: square"/>
   </g>
   <g id="line2d_39">
    <path d="M 258.205776 193.187368 
L 264.249097 193.187368 
" clip-path="url(#p8df27e212d)" style="fill: none; stroke: #000000; stroke-linecap: square"/>
   </g>
   <g id="patch_8">
    <path d="M 295.472924 194.003563 
L 307.559567 194.003563 
L 307.559567 189.977624 
L 304.537906 189.106397 
L 307.559567 188.235169 
L 307.559567 185.229474 
L 295.472924 185.229474 
L 295.472924 188.235169 
L 298.494585 189.106397 
L 295.472924 189.977624 
L 295.472924 194.003563 
z
" clip-path="url(#p8df27e212d)" style="fill: #0504aa; stroke: #000000; stroke-linejoin: miter"/>
   </g>
   <g id="line2d_40">
    <path d="M 301.516245 194.003563 
L 301.516245 205.430283 
" clip-path="url(#p8df27e212d)" style="fill: none; stroke: #000000; stroke-linecap: square"/>
   </g>
   <g id="line2d_41">
    <path d="M 301.516245 185.229474 
L 301.516245 176.047287 
" clip-path="url(#p8df27e212d)" style="fill: none; stroke: #000000; stroke-linecap: square"/>
   </g>
   <g id="line2d_42">
    <path d="M 298.494585 205.430283 
L 304.537906 205.430283 
" clip-path="url(#p8df27e212d)" style="fill: none; stroke: #000000; stroke-linecap: square"/>
   </g>
   <g id="line2d_43">
    <path d="M 298.494585 176.047287 
L 304.537906 176.047287 
" clip-path="url(#p8df27e212d)" style="fill: none; stroke: #000000; stroke-linecap: square"/>
   </g>
   <g id="patch_9">
    <path d="M 335.761733 182.576842 
L 347.848375 182.576842 
L 347.848375 178.794037 
L 344.826715 177.679676 
L 347.848375 176.565315 
L 347.848375 171.35417 
L 335.761733 171.35417 
L 335.761733 176.565315 
L 338.783394 177.679676 
L 335.761733 178.794037 
L 335.761733 182.576842 
z
" clip-path="url(#p8df27e212d)" style="fill: #0504aa; stroke: #000000; stroke-linejoin: miter"/>
   </g>
   <g id="line2d_44">
    <path d="M 341.805054 182.576842 
L 341.805054 194.003563 
" clip-path="url(#p8df27e212d)" style="fill: none; stroke: #000000; stroke-linecap: square"/>
   </g>
   <g id="line2d_45">
    <path d="M 341.805054 171.35417 
L 341.805054 158.907206 
" clip-path="url(#p8df27e212d)" style="fill: none; stroke: #000000; stroke-linecap: square"/>
   </g>
   <g id="line2d_46">
    <path d="M 338.783394 194.003563 
L 344.826715 194.003563 
" clip-path="url(#p8df27e212d)" style="fill: none; stroke: #000000; stroke-linecap: square"/>
   </g>
   <g id="line2d_47">
    <path d="M 338.783394 158.907206 
L 344.826715 158.907206 
" clip-path="url(#p8df27e212d)" style="fill: none; stroke: #000000; stroke-linecap: square"/>
   </g>
   <g id="patch_10">
    <path d="M 376.050542 171.150121 
L 388.137184 171.150121 
L 388.137184 166.571383 
L 385.115523 165.436761 
L 388.137184 164.302139 
L 388.137184 159.723401 
L 376.050542 159.723401 
L 376.050542 164.302139 
L 379.072202 165.436761 
L 376.050542 166.571383 
L 376.050542 171.150121 
z
" clip-path="url(#p8df27e212d)" style="fill: #0504aa; stroke: #000000; stroke-linejoin: miter"/>
   </g>
   <g id="line2d_48">
    <path d="M 382.093863 171.150121 
L 382.093863 188.290202 
" clip-path="url(#p8df27e212d)" style="fill: none; stroke: #000000; stroke-linecap: square"/>
   </g>
   <g id="line2d_49">
    <path d="M 382.093863 159.723401 
L 382.093863 145.848097 
" clip-path="url(#p8df27e212d)" style="fill: none; stroke: #000000; stroke-linecap: square"/>
   </g>
   <g id="line2d_50">
    <path d="M 379.072202 188.290202 
L 385.115523 188.290202 
" clip-path="url(#p8df27e212d)" style="fill: none; stroke: #000000; stroke-linecap: square"/>
   </g>
   <g id="line2d_51">
    <path d="M 379.072202 145.848097 
L 385.115523 145.848097 
" clip-path="url(#p8df27e212d)" style="fill: none; stroke: #000000; stroke-linecap: square"/>
   </g>
   <g id="patch_11">
    <path d="M 416.33935 157.274818 
L 428.425993 157.274818 
L 428.425993 152.041974 
L 425.404332 150.745263 
L 428.425993 149.448552 
L 428.425993 144.215709 
L 416.33935 144.215709 
L 416.33935 149.448552 
L 419.361011 150.745263 
L 416.33935 152.041974 
L 416.33935 157.274818 
z
" clip-path="url(#p8df27e212d)" style="fill: #0504aa; stroke: #000000; stroke-linejoin: miter"/>
   </g>
   <g id="line2d_52">
    <path d="M 422.382671 157.274818 
L 422.382671 175.231093 
" clip-path="url(#p8df27e212d)" style="fill: none; stroke: #000000; stroke-linecap: square"/>
   </g>
   <g id="line2d_53">
    <path d="M 422.382671 144.215709 
L 422.382671 127.075628 
" clip-path="url(#p8df27e212d)" style="fill: none; stroke: #000000; stroke-linecap: square"/>
   </g>
   <g id="line2d_54">
    <path d="M 419.361011 175.231093 
L 425.404332 175.231093 
" clip-path="url(#p8df27e212d)" style="fill: none; stroke: #000000; stroke-linecap: square"/>
   </g>
   <g id="line2d_55">
    <path d="M 419.361011 127.075628 
L 425.404332 127.075628 
" clip-path="url(#p8df27e212d)" style="fill: none; stroke: #000000; stroke-linecap: square"/>
   </g>
   <g id="patch_12">
    <path d="M 456.628159 144.215709 
L 468.714801 144.215709 
L 468.714801 139.553051 
L 465.693141 138.094251 
L 468.714801 136.635451 
L 468.714801 129.524211 
L 456.628159 129.524211 
L 456.628159 136.635451 
L 459.649819 138.094251 
L 456.628159 139.553051 
L 456.628159 144.215709 
z
" clip-path="url(#p8df27e212d)" style="fill: #0504aa; stroke: #000000; stroke-linejoin: miter"/>
   </g>
   <g id="line2d_56">
    <path d="M 462.67148 144.215709 
L 462.67148 165.436761 
" clip-path="url(#p8df27e212d)" style="fill: none; stroke: #000000; stroke-linecap: square"/>
   </g>
   <g id="line2d_57">
    <path d="M 462.67148 129.524211 
L 462.67148 109.119352 
" clip-path="url(#p8df27e212d)" style="fill: none; stroke: #000000; stroke-linecap: square"/>
   </g>
   <g id="line2d_58">
    <path d="M 459.649819 165.436761 
L 465.693141 165.436761 
" clip-path="url(#p8df27e212d)" style="fill: none; stroke: #000000; stroke-linecap: square"/>
   </g>
   <g id="line2d_59">
    <path d="M 459.649819 109.119352 
L 465.693141 109.119352 
" clip-path="url(#p8df27e212d)" style="fill: none; stroke: #000000; stroke-linecap: square"/>
   </g>
   <g id="patch_13">
    <path d="M 496.916968 132.788988 
L 509.00361 132.788988 
L 509.00361 126.146628 
L 505.981949 124.627045 
L 509.00361 123.107461 
L 509.00361 117.485344 
L 496.916968 117.485344 
L 496.916968 123.107461 
L 499.938628 124.627045 
L 496.916968 126.146628 
L 496.916968 132.788988 
z
" clip-path="url(#p8df27e212d)" style="fill: #0504aa; stroke: #000000; stroke-linejoin: miter"/>
   </g>
   <g id="line2d_60">
    <path d="M 502.960289 132.788988 
L 502.960289 154.01004 
" clip-path="url(#p8df27e212d)" style="fill: none; stroke: #000000; stroke-linecap: square"/>
   </g>
   <g id="line2d_61">
    <path d="M 502.960289 117.485344 
L 502.960289 97.692632 
" clip-path="url(#p8df27e212d)" style="fill: none; stroke: #000000; stroke-linecap: square"/>
   </g>
   <g id="line2d_62">
    <path d="M 499.938628 154.01004 
L 505.981949 154.01004 
" clip-path="url(#p8df27e212d)" style="fill: none; stroke: #000000; stroke-linecap: square"/>
   </g>
   <g id="line2d_63">
    <path d="M 499.938628 97.692632 
L 505.981949 97.692632 
" clip-path="url(#p8df27e212d)" style="fill: none; stroke: #000000; stroke-linecap: square"/>
   </g>
   <g id="patch_14">
    <path d="M 537.205776 118.09749 
L 549.292419 118.09749 
L 549.292419 110.473972 
L 546.270758 108.711255 
L 549.292419 106.948539 
L 549.292419 100.345263 
L 537.205776 100.345263 
L 537.205776 106.948539 
L 540.227437 108.711255 
L 537.205776 110.473972 
L 537.205776 118.09749 
z
" clip-path="url(#p8df27e212d)" style="fill: #0504aa; stroke: #000000; stroke-linejoin: miter"/>
   </g>
   <g id="line2d_64">
    <path d="M 543.249097 118.09749 
L 543.249097 142.58332 
" clip-path="url(#p8df27e212d)" style="fill: none; stroke: #000000; stroke-linecap: square"/>
   </g>
   <g id="line2d_65">
    <path d="M 543.249097 100.345263 
L 543.249097 82.184939 
" clip-path="url(#p8df27e212d)" style="fill: none; stroke: #000000; stroke-linecap: square"/>
   </g>
   <g id="line2d_66">
    <path d="M 540.227437 142.58332 
L 546.270758 142.58332 
" clip-path="url(#p8df27e212d)" style="fill: none; stroke: #000000; stroke-linecap: square"/>
   </g>
   <g id="line2d_67">
    <path d="M 540.227437 82.184939 
L 546.270758 82.184939 
" clip-path="url(#p8df27e212d)" style="fill: none; stroke: #000000; stroke-linecap: square"/>
   </g>
   <g id="patch_15">
    <path d="M 577.494585 99.32502 
L 589.581227 99.32502 
L 589.581227 92.783966 
L 586.559567 91.163077 
L 589.581227 89.542188 
L 589.581227 83.001134 
L 577.494585 83.001134 
L 577.494585 89.542188 
L 580.516245 91.163077 
L 577.494585 92.783966 
L 577.494585 99.32502 
z
" clip-path="url(#p8df27e212d)" style="fill: #0504aa; stroke: #000000; stroke-linejoin: miter"/>
   </g>
   <g id="line2d_68">
    <path d="M 583.537906 99.32502 
L 583.537906 122.994656 
" clip-path="url(#p8df27e212d)" style="fill: none; stroke: #000000; stroke-linecap: square"/>
   </g>
   <g id="line2d_69">
    <path d="M 583.537906 83.001134 
L 583.537906 62.596275 
" clip-path="url(#p8df27e212d)" style="fill: none; stroke: #000000; stroke-linecap: square"/>
   </g>
   <g id="line2d_70">
    <path d="M 580.516245 122.994656 
L 586.559567 122.994656 
" clip-path="url(#p8df27e212d)" style="fill: none; stroke: #000000; stroke-linecap: square"/>
   </g>
   <g id="line2d_71">
    <path d="M 580.516245 62.596275 
L 586.559567 62.596275 
" clip-path="url(#p8df27e212d)" style="fill: none; stroke: #000000; stroke-linecap: square"/>
   </g>
   <g id="patch_16">
    <path d="M 617.783394 84.633522 
L 629.870036 84.633522 
L 629.870036 78.072207 
L 626.848375 76.471579 
L 629.870036 74.870951 
L 629.870036 68.513684 
L 617.783394 68.513684 
L 617.783394 74.870951 
L 620.805054 76.471579 
L 617.783394 78.072207 
L 617.783394 84.633522 
z
" clip-path="url(#p8df27e212d)" style="fill: #0504aa; stroke: #000000; stroke-linejoin: miter"/>
   </g>
   <g id="line2d_72">
    <path d="M 623.826715 84.633522 
L 623.826715 107.486964 
" clip-path="url(#p8df27e212d)" style="fill: none; stroke: #000000; stroke-linecap: square"/>
   </g>
   <g id="line2d_73">
    <path d="M 623.826715 68.513684 
L 623.826715 44.64 
" clip-path="url(#p8df27e212d)" style="fill: none; stroke: #000000; stroke-linecap: square"/>
   </g>
   <g id="line2d_74">
    <path d="M 620.805054 107.486964 
L 626.848375 107.486964 
" clip-path="url(#p8df27e212d)" style="fill: none; stroke: #000000; stroke-linecap: square"/>
   </g>
   <g id="line2d_75">
    <path d="M 620.805054 44.64 
L 626.848375 44.64 
" clip-path="url(#p8df27e212d)" style="fill: none; stroke: #000000; stroke-linecap: square"/>
   </g>
   <g id="patch_17">
    <path d="M 108.129964 237.261862 
L 120.216606 237.261862 
L 120.216606 236.607757 
L 117.194946 236.445668 
L 120.216606 236.283579 
L 120.216606 235.629474 
L 108.129964 235.629474 
L 108.129964 236.283579 
L 111.151625 236.445668 
L 108.129964 236.607757 
L 108.129964 237.261862 
z
" clip-path="url(#p8df27e212d)" style="fill: #e50000; stroke: #000000; stroke-linejoin: miter"/>
   </g>
   <g id="line2d_76">
    <path d="M 114.173285 237.261862 
L 114.173285 239.710445 
" clip-path="url(#p8df27e212d)" style="fill: none; stroke: #000000; stroke-linecap: square"/>
   </g>
   <g id="line2d_77">
    <path d="M 114.173285 235.629474 
L 114.173285 233.180891 
" clip-path="url(#p8df27e212d)" style="fill: none; stroke: #000000; stroke-linecap: square"/>
   </g>
   <g id="line2d_78">
    <path d="M 111.151625 239.710445 
L 117.194946 239.710445 
" clip-path="url(#p8df27e212d)" style="fill: none; stroke: #000000; stroke-linecap: square"/>
   </g>
   <g id="line2d_79">
    <path d="M 111.151625 233.180891 
L 117.194946 233.180891 
" clip-path="url(#p8df27e212d)" style="fill: none; stroke: #000000; stroke-linecap: square"/>
   </g>
   <g id="patch_18">
    <path d="M 148.418773 237.261862 
L 160.505415 237.261862 
L 160.505415 236.688801 
L 157.483755 236.445668 
L 160.505415 236.202535 
L 160.505415 234.813279 
L 148.418773 234.813279 
L 148.418773 236.202535 
L 151.440433 236.445668 
L 148.418773 236.688801 
L 148.418773 237.261862 
z
" clip-path="url(#p8df27e212d)" style="fill: #e50000; stroke: #000000; stroke-linejoin: miter"/>
   </g>
   <g id="line2d_80">
    <path d="M 154.462094 237.261862 
L 154.462094 240.52664 
" clip-path="url(#p8df27e212d)" style="fill: none; stroke: #000000; stroke-linecap: square"/>
   </g>
   <g id="line2d_81">
    <path d="M 154.462094 234.813279 
L 154.462094 232.364696 
" clip-path="url(#p8df27e212d)" style="fill: none; stroke: #000000; stroke-linecap: square"/>
   </g>
   <g id="line2d_82">
    <path d="M 151.440433 240.52664 
L 157.483755 240.52664 
" clip-path="url(#p8df27e212d)" style="fill: none; stroke: #000000; stroke-linecap: square"/>
   </g>
   <g id="line2d_83">
    <path d="M 151.440433 232.364696 
L 157.483755 232.364696 
" clip-path="url(#p8df27e212d)" style="fill: none; stroke: #000000; stroke-linecap: square"/>
   </g>
   <g id="patch_19">
    <path d="M 188.707581 218.489393 
L 200.794224 218.489393 
L 200.794224 217.181182 
L 197.772563 216.857004 
L 200.794224 216.532826 
L 200.794224 215.224615 
L 188.707581 215.224615 
L 188.707581 216.532826 
L 191.729242 216.857004 
L 188.707581 217.181182 
L 188.707581 218.489393 
z
" clip-path="url(#p8df27e212d)" style="fill: #e50000; stroke: #000000; stroke-linejoin: miter"/>
   </g>
   <g id="line2d_84">
    <path d="M 194.750903 218.489393 
L 194.750903 222.570364 
" clip-path="url(#p8df27e212d)" style="fill: none; stroke: #000000; stroke-linecap: square"/>
   </g>
   <g id="line2d_85">
    <path d="M 194.750903 215.224615 
L 194.750903 211.143644 
" clip-path="url(#p8df27e212d)" style="fill: none; stroke: #000000; stroke-linecap: square"/>
   </g>
   <g id="line2d_86">
    <path d="M 191.729242 222.570364 
L 197.772563 222.570364 
" clip-path="url(#p8df27e212d)" style="fill: none; stroke: #000000; stroke-linecap: square"/>
   </g>
   <g id="line2d_87">
    <path d="M 191.729242 211.143644 
L 197.772563 211.143644 
" clip-path="url(#p8df27e212d)" style="fill: none; stroke: #000000; stroke-linecap: square"/>
   </g>
   <g id="patch_20">
    <path d="M 228.99639 218.489393 
L 241.083032 218.489393 
L 241.083032 217.181182 
L 238.061372 216.857004 
L 241.083032 216.532826 
L 241.083032 215.224615 
L 228.99639 215.224615 
L 228.99639 216.532826 
L 232.018051 216.857004 
L 228.99639 217.181182 
L 228.99639 218.489393 
z
" clip-path="url(#p8df27e212d)" style="fill: #e50000; stroke: #000000; stroke-linejoin: miter"/>
   </g>
   <g id="line2d_88">
    <path d="M 235.039711 218.489393 
L 235.039711 222.570364 
" clip-path="url(#p8df27e212d)" style="fill: none; stroke: #000000; stroke-linecap: square"/>
   </g>
   <g id="line2d_89">
    <path d="M 235.039711 215.224615 
L 235.039711 211.959838 
" clip-path="url(#p8df27e212d)" style="fill: none; stroke: #000000; stroke-linecap: square"/>
   </g>
   <g id="line2d_90">
    <path d="M 232.018051 222.570364 
L 238.061372 222.570364 
" clip-path="url(#p8df27e212d)" style="fill: none; stroke: #000000; stroke-linecap: square"/>
   </g>
   <g id="line2d_91">
    <path d="M 232.018051 211.959838 
L 238.061372 211.959838 
" clip-path="url(#p8df27e212d)" style="fill: none; stroke: #000000; stroke-linecap: square"/>
   </g>
   <g id="patch_21">
    <path d="M 269.285199 189.922591 
L 281.371841 189.922591 
L 281.371841 187.960275 
L 278.350181 187.474008 
L 281.371841 186.987741 
L 281.371841 185.025425 
L 269.285199 185.025425 
L 269.285199 186.987741 
L 272.306859 187.474008 
L 269.285199 187.960275 
L 269.285199 189.922591 
z
" clip-path="url(#p8df27e212d)" style="fill: #e50000; stroke: #000000; stroke-linejoin: miter"/>
   </g>
   <g id="line2d_92">
    <path d="M 275.32852 189.922591 
L 275.32852 197.26834 
" clip-path="url(#p8df27e212d)" style="fill: none; stroke: #000000; stroke-linecap: square"/>
   </g>
   <g id="line2d_93">
    <path d="M 275.32852 185.025425 
L 275.32852 177.679676 
" clip-path="url(#p8df27e212d)" style="fill: none; stroke: #000000; stroke-linecap: square"/>
   </g>
   <g id="line2d_94">
    <path d="M 272.306859 197.26834 
L 278.350181 197.26834 
" clip-path="url(#p8df27e212d)" style="fill: none; stroke: #000000; stroke-linecap: square"/>
   </g>
   <g id="line2d_95">
    <path d="M 272.306859 177.679676 
L 278.350181 177.679676 
" clip-path="url(#p8df27e212d)" style="fill: none; stroke: #000000; stroke-linecap: square"/>
   </g>
   <g id="patch_22">
    <path d="M 309.574007 190.738785 
L 321.66065 190.738785 
L 321.66065 188.837252 
L 318.638989 188.290202 
L 321.66065 187.743152 
L 321.66065 185.229474 
L 309.574007 185.229474 
L 309.574007 187.743152 
L 312.595668 188.290202 
L 309.574007 188.837252 
L 309.574007 190.738785 
z
" clip-path="url(#p8df27e212d)" style="fill: #e50000; stroke: #000000; stroke-linejoin: miter"/>
   </g>
   <g id="line2d_96">
    <path d="M 315.617329 190.738785 
L 315.617329 198.900729 
" clip-path="url(#p8df27e212d)" style="fill: none; stroke: #000000; stroke-linecap: square"/>
   </g>
   <g id="line2d_97">
    <path d="M 315.617329 185.229474 
L 315.617329 177.679676 
" clip-path="url(#p8df27e212d)" style="fill: none; stroke: #000000; stroke-linecap: square"/>
   </g>
   <g id="line2d_98">
    <path d="M 312.595668 198.900729 
L 318.638989 198.900729 
" clip-path="url(#p8df27e212d)" style="fill: none; stroke: #000000; stroke-linecap: square"/>
   </g>
   <g id="line2d_99">
    <path d="M 312.595668 177.679676 
L 318.638989 177.679676 
" clip-path="url(#p8df27e212d)" style="fill: none; stroke: #000000; stroke-linecap: square"/>
   </g>
   <g id="patch_23">
    <path d="M 349.862816 189.922591 
L 361.949458 189.922591 
L 361.949458 188.041319 
L 358.927798 187.474008 
L 361.949458 186.906697 
L 361.949458 184.209231 
L 349.862816 184.209231 
L 349.862816 186.906697 
L 352.884477 187.474008 
L 349.862816 188.041319 
L 349.862816 189.922591 
z
" clip-path="url(#p8df27e212d)" style="fill: #e50000; stroke: #000000; stroke-linejoin: miter"/>
   </g>
   <g id="line2d_100">
    <path d="M 355.906137 189.922591 
L 355.906137 198.084534 
" clip-path="url(#p8df27e212d)" style="fill: none; stroke: #000000; stroke-linecap: square"/>
   </g>
   <g id="line2d_101">
    <path d="M 355.906137 184.209231 
L 355.906137 178.49587 
" clip-path="url(#p8df27e212d)" style="fill: none; stroke: #000000; stroke-linecap: square"/>
   </g>
   <g id="line2d_102">
    <path d="M 352.884477 198.084534 
L 358.927798 198.084534 
" clip-path="url(#p8df27e212d)" style="fill: none; stroke: #000000; stroke-linecap: square"/>
   </g>
   <g id="line2d_103">
    <path d="M 352.884477 178.49587 
L 358.927798 178.49587 
" clip-path="url(#p8df27e212d)" style="fill: none; stroke: #000000; stroke-linecap: square"/>
   </g>
   <g id="patch_24">
    <path d="M 390.151625 189.922591 
L 402.238267 189.922591 
L 402.238267 187.960275 
L 399.216606 187.474008 
L 402.238267 186.987741 
L 402.238267 185.025425 
L 390.151625 185.025425 
L 390.151625 186.987741 
L 393.173285 187.474008 
L 390.151625 187.960275 
L 390.151625 189.922591 
z
" clip-path="url(#p8df27e212d)" style="fill: #e50000; stroke: #000000; stroke-linejoin: miter"/>
   </g>
   <g id="line2d_104">
    <path d="M 396.194946 189.922591 
L 396.194946 196.452146 
" clip-path="url(#p8df27e212d)" style="fill: none; stroke: #000000; stroke-linecap: square"/>
   </g>
   <g id="line2d_105">
    <path d="M 396.194946 185.025425 
L 396.194946 177.679676 
" clip-path="url(#p8df27e212d)" style="fill: none; stroke: #000000; stroke-linecap: square"/>
   </g>
   <g id="line2d_106">
    <path d="M 393.173285 196.452146 
L 399.216606 196.452146 
" clip-path="url(#p8df27e212d)" style="fill: none; stroke: #000000; stroke-linecap: square"/>
   </g>
   <g id="line2d_107">
    <path d="M 393.173285 177.679676 
L 399.216606 177.679676 
" clip-path="url(#p8df27e212d)" style="fill: none; stroke: #000000; stroke-linecap: square"/>
   </g>
   <g id="patch_25">
    <path d="M 430.440433 158.091012 
L 442.527076 158.091012 
L 442.527076 155.147538 
L 439.505415 154.418138 
L 442.527076 153.688738 
L 442.527076 150.745263 
L 430.440433 150.745263 
L 430.440433 153.688738 
L 433.462094 154.418138 
L 430.440433 155.147538 
L 430.440433 158.091012 
z
" clip-path="url(#p8df27e212d)" style="fill: #e50000; stroke: #000000; stroke-linejoin: miter"/>
   </g>
   <g id="line2d_108">
    <path d="M 436.483755 158.091012 
L 436.483755 168.701538 
" clip-path="url(#p8df27e212d)" style="fill: none; stroke: #000000; stroke-linecap: square"/>
   </g>
   <g id="line2d_109">
    <path d="M 436.483755 150.745263 
L 436.483755 142.58332 
" clip-path="url(#p8df27e212d)" style="fill: none; stroke: #000000; stroke-linecap: square"/>
   </g>
   <g id="line2d_110">
    <path d="M 433.462094 168.701538 
L 439.505415 168.701538 
" clip-path="url(#p8df27e212d)" style="fill: none; stroke: #000000; stroke-linecap: square"/>
   </g>
   <g id="line2d_111">
    <path d="M 433.462094 142.58332 
L 439.505415 142.58332 
" clip-path="url(#p8df27e212d)" style="fill: none; stroke: #000000; stroke-linecap: square"/>
   </g>
   <g id="patch_26">
    <path d="M 470.729242 158.091012 
L 482.815884 158.091012 
L 482.815884 155.47459 
L 479.794224 154.826235 
L 482.815884 154.177879 
L 482.815884 151.561457 
L 470.729242 151.561457 
L 470.729242 154.177879 
L 473.750903 154.826235 
L 470.729242 155.47459 
L 470.729242 158.091012 
z
" clip-path="url(#p8df27e212d)" style="fill: #e50000; stroke: #000000; stroke-linejoin: miter"/>
   </g>
   <g id="line2d_112">
    <path d="M 476.772563 158.091012 
L 476.772563 167.06915 
" clip-path="url(#p8df27e212d)" style="fill: none; stroke: #000000; stroke-linecap: square"/>
   </g>
   <g id="line2d_113">
    <path d="M 476.772563 151.561457 
L 476.772563 145.031903 
" clip-path="url(#p8df27e212d)" style="fill: none; stroke: #000000; stroke-linecap: square"/>
   </g>
   <g id="line2d_114">
    <path d="M 473.750903 167.06915 
L 479.794224 167.06915 
" clip-path="url(#p8df27e212d)" style="fill: none; stroke: #000000; stroke-linecap: square"/>
   </g>
   <g id="line2d_115">
    <path d="M 473.750903 145.031903 
L 479.794224 145.031903 
" clip-path="url(#p8df27e212d)" style="fill: none; stroke: #000000; stroke-linecap: square"/>
   </g>
   <g id="patch_27">
    <path d="M 511.018051 158.091012 
L 523.104693 158.091012 
L 523.104693 155.47459 
L 520.083032 154.826235 
L 523.104693 154.177879 
L 523.104693 151.561457 
L 511.018051 151.561457 
L 511.018051 154.177879 
L 514.039711 154.826235 
L 511.018051 155.47459 
L 511.018051 158.091012 
z
" clip-path="url(#p8df27e212d)" style="fill: #e50000; stroke: #000000; stroke-linejoin: miter"/>
   </g>
   <g id="line2d_116">
    <path d="M 517.061372 158.091012 
L 517.061372 167.06915 
" clip-path="url(#p8df27e212d)" style="fill: none; stroke: #000000; stroke-linecap: square"/>
   </g>
   <g id="line2d_117">
    <path d="M 517.061372 151.561457 
L 517.061372 141.767126 
" clip-path="url(#p8df27e212d)" style="fill: none; stroke: #000000; stroke-linecap: square"/>
   </g>
   <g id="line2d_118">
    <path d="M 514.039711 167.06915 
L 520.083032 167.06915 
" clip-path="url(#p8df27e212d)" style="fill: none; stroke: #000000; stroke-linecap: square"/>
   </g>
   <g id="line2d_119">
    <path d="M 514.039711 141.767126 
L 520.083032 141.767126 
" clip-path="url(#p8df27e212d)" style="fill: none; stroke: #000000; stroke-linecap: square"/>
   </g>
   <g id="patch_28">
    <path d="M 551.306859 158.907206 
L 563.393502 158.907206 
L 563.393502 155.555635 
L 560.371841 154.826235 
L 563.393502 154.096835 
L 563.393502 151.561457 
L 551.306859 151.561457 
L 551.306859 154.096835 
L 554.32852 154.826235 
L 551.306859 155.555635 
L 551.306859 158.907206 
z
" clip-path="url(#p8df27e212d)" style="fill: #e50000; stroke: #000000; stroke-linejoin: miter"/>
   </g>
   <g id="line2d_120">
    <path d="M 557.350181 158.907206 
L 557.350181 169.517733 
" clip-path="url(#p8df27e212d)" style="fill: none; stroke: #000000; stroke-linecap: square"/>
   </g>
   <g id="line2d_121">
    <path d="M 557.350181 151.561457 
L 557.350181 141.767126 
" clip-path="url(#p8df27e212d)" style="fill: none; stroke: #000000; stroke-linecap: square"/>
   </g>
   <g id="line2d_122">
    <path d="M 554.32852 169.517733 
L 560.371841 169.517733 
" clip-path="url(#p8df27e212d)" style="fill: none; stroke: #000000; stroke-linecap: square"/>
   </g>
   <g id="line2d_123">
    <path d="M 554.32852 141.767126 
L 560.371841 141.767126 
" clip-path="url(#p8df27e212d)" style="fill: none; stroke: #000000; stroke-linecap: square"/>
   </g>
   <g id="patch_29">
    <path d="M 591.595668 106.670769 
L 603.68231 106.670769 
L 603.68231 103.400242 
L 600.66065 102.589798 
L 603.68231 101.779353 
L 603.68231 98.508826 
L 591.595668 98.508826 
L 591.595668 101.779353 
L 594.617329 102.589798 
L 591.595668 103.400242 
L 591.595668 106.670769 
z
" clip-path="url(#p8df27e212d)" style="fill: #e50000; stroke: #000000; stroke-linejoin: miter"/>
   </g>
   <g id="line2d_124">
    <path d="M 597.638989 106.670769 
L 597.638989 118.09749 
" clip-path="url(#p8df27e212d)" style="fill: none; stroke: #000000; stroke-linecap: square"/>
   </g>
   <g id="line2d_125">
    <path d="M 597.638989 98.508826 
L 597.638989 86.265911 
" clip-path="url(#p8df27e212d)" style="fill: none; stroke: #000000; stroke-linecap: square"/>
   </g>
   <g id="line2d_126">
    <path d="M 594.617329 118.09749 
L 600.66065 118.09749 
" clip-path="url(#p8df27e212d)" style="fill: none; stroke: #000000; stroke-linecap: square"/>
   </g>
   <g id="line2d_127">
    <path d="M 594.617329 86.265911 
L 600.66065 86.265911 
" clip-path="url(#p8df27e212d)" style="fill: none; stroke: #000000; stroke-linecap: square"/>
   </g>
   <g id="patch_30">
    <path d="M 631.884477 106.466721 
L 643.971119 106.466721 
L 643.971119 103.379981 
L 640.949458 102.589798 
L 643.971119 101.799614 
L 643.971119 98.508826 
L 631.884477 98.508826 
L 631.884477 101.799614 
L 634.906137 102.589798 
L 631.884477 103.379981 
L 631.884477 106.466721 
z
" clip-path="url(#p8df27e212d)" style="fill: #e50000; stroke: #000000; stroke-linejoin: miter"/>
   </g>
   <g id="line2d_128">
    <path d="M 637.927798 106.466721 
L 637.927798 117.281296 
" clip-path="url(#p8df27e212d)" style="fill: none; stroke: #000000; stroke-linecap: square"/>
   </g>
   <g id="line2d_129">
    <path d="M 637.927798 98.508826 
L 637.927798 88.714494 
" clip-path="url(#p8df27e212d)" style="fill: none; stroke: #000000; stroke-linecap: square"/>
   </g>
   <g id="line2d_130">
    <path d="M 634.906137 117.281296 
L 640.949458 117.281296 
" clip-path="url(#p8df27e212d)" style="fill: none; stroke: #000000; stroke-linecap: square"/>
   </g>
   <g id="line2d_131">
    <path d="M 634.906137 88.714494 
L 640.949458 88.714494 
" clip-path="url(#p8df27e212d)" style="fill: none; stroke: #000000; stroke-linecap: square"/>
   </g>
   <g id="line2d_132">
    <path d="M 97.050542 241.342834 
L 103.093863 241.342834 
" clip-path="url(#p8df27e212d)" style="fill: none; stroke: #000000; stroke-opacity: 0"/>
   </g>
   <g id="line2d_133">
    <path d="M 137.33935 233.180891 
L 143.382671 233.180891 
" clip-path="url(#p8df27e212d)" style="fill: none; stroke: #000000; stroke-opacity: 0"/>
   </g>
   <g id="line2d_134">
    <path d="M 177.628159 225.018947 
L 183.67148 225.018947 
" clip-path="url(#p8df27e212d)" style="fill: none; stroke: #000000; stroke-opacity: 0"/>
   </g>
   <g id="line2d_135">
    <path d="M 217.916968 214.408421 
L 223.960289 214.408421 
" clip-path="url(#p8df27e212d)" style="fill: none; stroke: #000000; stroke-opacity: 0"/>
   </g>
   <g id="line2d_136">
    <path d="M 258.205776 202.165506 
L 264.249097 202.165506 
" clip-path="url(#p8df27e212d)" style="fill: none; stroke: #000000; stroke-opacity: 0"/>
   </g>
   <g id="line2d_137">
    <path d="M 298.494585 189.106397 
L 304.537906 189.106397 
" clip-path="url(#p8df27e212d)" style="fill: none; stroke: #000000; stroke-opacity: 0"/>
   </g>
   <g id="line2d_138">
    <path d="M 338.783394 177.679676 
L 344.826715 177.679676 
" clip-path="url(#p8df27e212d)" style="fill: none; stroke: #000000; stroke-opacity: 0"/>
   </g>
   <g id="line2d_139">
    <path d="M 379.072202 165.436761 
L 385.115523 165.436761 
" clip-path="url(#p8df27e212d)" style="fill: none; stroke: #000000; stroke-opacity: 0"/>
   </g>
   <g id="line2d_140">
    <path d="M 419.361011 150.745263 
L 425.404332 150.745263 
" clip-path="url(#p8df27e212d)" style="fill: none; stroke: #000000; stroke-opacity: 0"/>
   </g>
   <g id="line2d_141">
    <path d="M 459.649819 138.094251 
L 465.693141 138.094251 
" clip-path="url(#p8df27e212d)" style="fill: none; stroke: #000000; stroke-opacity: 0"/>
   </g>
   <g id="line2d_142">
    <path d="M 499.938628 124.627045 
L 505.981949 124.627045 
" clip-path="url(#p8df27e212d)" style="fill: none; stroke: #000000; stroke-opacity: 0"/>
   </g>
   <g id="line2d_143">
    <path d="M 540.227437 108.711255 
L 546.270758 108.711255 
" clip-path="url(#p8df27e212d)" style="fill: none; stroke: #000000; stroke-opacity: 0"/>
   </g>
   <g id="line2d_144">
    <path d="M 580.516245 91.163077 
L 586.559567 91.163077 
" clip-path="url(#p8df27e212d)" style="fill: none; stroke: #000000; stroke-opacity: 0"/>
   </g>
   <g id="line2d_145">
    <path d="M 620.805054 76.471579 
L 626.848375 76.471579 
" clip-path="url(#p8df27e212d)" style="fill: none; stroke: #000000; stroke-opacity: 0"/>
   </g>
   <g id="line2d_146">
    <path d="M 111.151625 236.445668 
L 117.194946 236.445668 
" clip-path="url(#p8df27e212d)" style="fill: none; stroke: #000000; stroke-opacity: 0"/>
   </g>
   <g id="line2d_147">
    <path d="M 151.440433 236.445668 
L 157.483755 236.445668 
" clip-path="url(#p8df27e212d)" style="fill: none; stroke: #000000; stroke-opacity: 0"/>
   </g>
   <g id="line2d_148">
    <path d="M 191.729242 216.857004 
L 197.772563 216.857004 
" clip-path="url(#p8df27e212d)" style="fill: none; stroke: #000000; stroke-opacity: 0"/>
   </g>
   <g id="line2d_149">
    <path d="M 232.018051 216.857004 
L 238.061372 216.857004 
" clip-path="url(#p8df27e212d)" style="fill: none; stroke: #000000; stroke-opacity: 0"/>
   </g>
   <g id="line2d_150">
    <path d="M 272.306859 187.474008 
L 278.350181 187.474008 
" clip-path="url(#p8df27e212d)" style="fill: none; stroke: #000000; stroke-opacity: 0"/>
   </g>
   <g id="line2d_151">
    <path d="M 312.595668 188.290202 
L 318.638989 188.290202 
" clip-path="url(#p8df27e212d)" style="fill: none; stroke: #000000; stroke-opacity: 0"/>
   </g>
   <g id="line2d_152">
    <path d="M 352.884477 187.474008 
L 358.927798 187.474008 
" clip-path="url(#p8df27e212d)" style="fill: none; stroke: #000000; stroke-opacity: 0"/>
   </g>
   <g id="line2d_153">
    <path d="M 393.173285 187.474008 
L 399.216606 187.474008 
" clip-path="url(#p8df27e212d)" style="fill: none; stroke: #000000; stroke-opacity: 0"/>
   </g>
   <g id="line2d_154">
    <path d="M 433.462094 154.418138 
L 439.505415 154.418138 
" clip-path="url(#p8df27e212d)" style="fill: none; stroke: #000000; stroke-opacity: 0"/>
   </g>
   <g id="line2d_155">
    <path d="M 473.750903 154.826235 
L 479.794224 154.826235 
" clip-path="url(#p8df27e212d)" style="fill: none; stroke: #000000; stroke-opacity: 0"/>
   </g>
   <g id="line2d_156">
    <path d="M 514.039711 154.826235 
L 520.083032 154.826235 
" clip-path="url(#p8df27e212d)" style="fill: none; stroke: #000000; stroke-opacity: 0"/>
   </g>
   <g id="line2d_157">
    <path d="M 554.32852 154.826235 
L 560.371841 154.826235 
" clip-path="url(#p8df27e212d)" style="fill: none; stroke: #000000; stroke-opacity: 0"/>
   </g>
   <g id="line2d_158">
    <path d="M 594.617329 102.589798 
L 600.66065 102.589798 
" clip-path="url(#p8df27e212d)" style="fill: none; stroke: #000000; stroke-opacity: 0"/>
   </g>
   <g id="line2d_159">
    <path d="M 634.906137 102.589798 
L 640.949458 102.589798 
" clip-path="url(#p8df27e212d)" style="fill: none; stroke: #000000; stroke-opacity: 0"/>
   </g>
   <g id="patch_31">
    <path d="M 90 256.32 
L 90 34.56 
" style="fill: none; stroke: #000000; stroke-width: 0.8; stroke-linejoin: miter; stroke-linecap: square"/>
   </g>
   <g id="patch_32">
    <path d="M 648 256.32 
L 648 34.56 
" style="fill: none; stroke: #000000; stroke-width: 0.8; stroke-linejoin: miter; stroke-linecap: square"/>
   </g>
   <g id="patch_33">
    <path d="M 90 256.32 
L 648 256.32 
" style="fill: none; stroke: #000000; stroke-width: 0.8; stroke-linejoin: miter; stroke-linecap: square"/>
   </g>
   <g id="patch_34">
    <path d="M 90 34.56 
L 648 34.56 
" style="fill: none; stroke: #000000; stroke-width: 0.8; stroke-linejoin: miter; stroke-linecap: square"/>
   </g>
   <g id="legend_1">
    <g id="patch_35">
     <path d="M 113.932813 71.91625 
L 194.6 71.91625 
Q 196.6 71.91625 196.6 69.91625 
L 196.6 41.56 
Q 196.6 39.56 194.6 39.56 
L 113.932813 39.56 
Q 111.932813 39.56 111.932813 41.56 
L 111.932813 69.91625 
Q 111.932813 71.91625 113.932813 71.91625 
z
" style="fill: #ffffff; opacity: 0.8; stroke: #cccccc; stroke-linejoin: miter"/>
    </g>
    <g id="patch_36">
     <path d="M 115.932813 51.158437 
L 135.932813 51.158437 
L 135.932813 44.158437 
L 115.932813 44.158437 
z
" style="fill: #0504aa; stroke: #000000; stroke-linejoin: miter"/>
    </g>
    <g id="text_22">
     <!-- Bienstock -->
     <g transform="translate(143.932813 51.158437) scale(0.1 -0.1)">
      <defs>
       <path id="DejaVuSans-42" d="M 1259 2228 
L 1259 519 
L 2272 519 
Q 2781 519 3026 730 
Q 3272 941 3272 1375 
Q 3272 1813 3026 2020 
Q 2781 2228 2272 2228 
L 1259 2228 
z
M 1259 4147 
L 1259 2741 
L 2194 2741 
Q 2656 2741 2882 2914 
Q 3109 3088 3109 3444 
Q 3109 3797 2882 3972 
Q 2656 4147 2194 4147 
L 1259 4147 
z
M 628 4666 
L 2241 4666 
Q 2963 4666 3353 4366 
Q 3744 4066 3744 3513 
Q 3744 3084 3544 2831 
Q 3344 2578 2956 2516 
Q 3422 2416 3680 2098 
Q 3938 1781 3938 1306 
Q 3938 681 3513 340 
Q 3088 0 2303 0 
L 628 0 
L 628 4666 
z
" transform="scale(0.015625)"/>
       <path id="DejaVuSans-63" d="M 3122 3366 
L 3122 2828 
Q 2878 2963 2633 3030 
Q 2388 3097 2138 3097 
Q 1578 3097 1268 2742 
Q 959 2388 959 1747 
Q 959 1106 1268 751 
Q 1578 397 2138 397 
Q 2388 397 2633 464 
Q 2878 531 3122 666 
L 3122 134 
Q 2881 22 2623 -34 
Q 2366 -91 2075 -91 
Q 1284 -91 818 406 
Q 353 903 353 1747 
Q 353 2603 823 3093 
Q 1294 3584 2113 3584 
Q 2378 3584 2631 3529 
Q 2884 3475 3122 3366 
z
" transform="scale(0.015625)"/>
       <path id="DejaVuSans-6b" d="M 581 4863 
L 1159 4863 
L 1159 1991 
L 2875 3500 
L 3609 3500 
L 1753 1863 
L 3688 0 
L 2938 0 
L 1159 1709 
L 1159 0 
L 581 0 
L 581 4863 
z
" transform="scale(0.015625)"/>
      </defs>
      <use xlink:href="#DejaVuSans-42"/>
      <use xlink:href="#DejaVuSans-69" x="68.603516"/>
      <use xlink:href="#DejaVuSans-65" x="96.386719"/>
      <use xlink:href="#DejaVuSans-6e" x="157.910156"/>
      <use xlink:href="#DejaVuSans-73" x="221.289062"/>
      <use xlink:href="#DejaVuSans-74" x="273.388672"/>
      <use xlink:href="#DejaVuSans-6f" x="312.597656"/>
      <use xlink:href="#DejaVuSans-63" x="373.779297"/>
      <use xlink:href="#DejaVuSans-6b" x="428.759766"/>
     </g>
    </g>
    <g id="patch_37">
     <path d="M 115.932813 65.836562 
L 135.932813 65.836562 
L 135.932813 58.836562 
L 115.932813 58.836562 
z
" style="fill: #e50000; stroke: #000000; stroke-linejoin: miter"/>
    </g>
    <g id="text_23">
     <!-- Dallant -->
     <g transform="translate(143.932813 65.836562) scale(0.1 -0.1)">
      <defs>
       <path id="DejaVuSans-44" d="M 1259 4147 
L 1259 519 
L 2022 519 
Q 2988 519 3436 956 
Q 3884 1394 3884 2338 
Q 3884 3275 3436 3711 
Q 2988 4147 2022 4147 
L 1259 4147 
z
M 628 4666 
L 1925 4666 
Q 3281 4666 3915 4102 
Q 4550 3538 4550 2338 
Q 4550 1131 3912 565 
Q 3275 0 1925 0 
L 628 0 
L 628 4666 
z
" transform="scale(0.015625)"/>
       <path id="DejaVuSans-6c" d="M 603 4863 
L 1178 4863 
L 1178 0 
L 603 0 
L 603 4863 
z
" transform="scale(0.015625)"/>
      </defs>
      <use xlink:href="#DejaVuSans-44"/>
      <use xlink:href="#DejaVuSans-61" x="77.001953"/>
      <use xlink:href="#DejaVuSans-6c" x="138.28125"/>
      <use xlink:href="#DejaVuSans-6c" x="166.064453"/>
      <use xlink:href="#DejaVuSans-61" x="193.847656"/>
      <use xlink:href="#DejaVuSans-6e" x="255.126953"/>
      <use xlink:href="#DejaVuSans-74" x="318.505859"/>
     </g>
    </g>
   </g>
  </g>
 </g>
 <defs>
  <clipPath id="p8df27e212d">
   <rect x="90" y="34.56" width="558" height="221.76"/>
  </clipPath>
 </defs>
</svg>
