<?xml version="1.0" encoding="utf-8" standalone="no"?>
<!DOCTYPE svg PUBLIC "-//W3C//DTD SVG 1.1//EN"
  "http://www.w3.org/Graphics/SVG/1.1/DTD/svg11.dtd">
<svg xmlns:xlink="http://www.w3.org/1999/xlink" width="720pt" height="288pt" viewBox="0 0 720 288" xmlns="http://www.w3.org/2000/svg" version="1.1">
 <metadata>
  <rdf:RDF xmlns:dc="http://purl.org/dc/elements/1.1/" xmlns:cc="http://creativecommons.org/ns#" xmlns:rdf="http://www.w3.org/1999/02/22-rdf-syntax-ns#">
   <cc:Work>
    <dc:type rdf:resource="http://purl.org/dc/dcmitype/StillImage"/>
    <dc:date>2024-08-08T08:52:48.876095</dc:date>
    <dc:format>image/svg+xml</dc:format>
    <dc:creator>
     <cc:Agent>
      <dc:title>Matplotlib v3.9.1, https://matplotlib.org/</dc:title>
     </cc:Agent>
    </dc:creator>
   </cc:Work>
  </rdf:RDF>
 </metadata>
 <defs>
  <style type="text/css">*{stroke-linejoin: round; stroke-linecap: butt}</style>
 </defs>
 <g id="figure_1">
  <g id="patch_1">
   <path d="M 0 288 
L 720 288 
L 720 0 
L 0 0 
z
" style="fill: #ffffff"/>
  </g>
  <g id="axes_1">
   <g id="patch_2">
    <path d="M 90 256.32 
L 648 256.32 
L 648 34.56 
L 90 34.56 
z
" style="fill: #ffffff"/>
   </g>
   <g id="PolyCollection_1">
    <defs>
     <path id="m0059d0ebf7" d="M 90 -34.207188 
L 90 -35.042658 
L 101.387755 -39.436729 
L 112.77551 -43.973707 
L 124.163265 -48.426184 
L 135.55102 -53.306138 
L 146.938776 -57.411911 
L 158.326531 -62.495663 
L 169.714286 -67.045068 
L 181.102041 -70.464888 
L 192.489796 -74.805525 
L 203.877551 -81.340712 
L 215.265306 -84.403887 
L 226.653061 -88.284736 
L 238.040816 -94.418542 
L 249.428571 -97.961386 
L 260.816327 -101.251969 
L 272.204082 -106.053636 
L 283.591837 -109.218709 
L 294.979592 -114.911368 
L 306.367347 -118.358527 
L 317.755102 -122.838342 
L 329.142857 -128.666452 
L 340.530612 -134.948135 
L 351.918367 -136.495256 
L 363.306122 -139.203028 
L 374.693878 -145.924615 
L 386.081633 -147.721512 
L 397.469388 -151.080441 
L 408.857143 -158.780008 
L 420.244898 -161.784777 
L 431.632653 -169.407298 
L 443.020408 -171.869022 
L 454.408163 -175.946213 
L 465.795918 -176.81608 
L 477.183673 -182.36459 
L 488.571429 -188.184 
L 499.959184 -191.679623 
L 511.346939 -197.735141 
L 522.734694 -199.655062 
L 534.122449 -202.712023 
L 545.510204 -201.323964 
L 556.897959 -211.63686 
L 568.285714 -214.586952 
L 579.673469 -219.499215 
L 591.061224 -227.192568 
L 602.44898 -235.170492 
L 613.836735 -230.439658 
L 625.22449 -239.25514 
L 636.612245 -238.761801 
L 648 -242.88 
L 648 -176.191019 
L 648 -176.191019 
L 636.612245 -169.637192 
L 625.22449 -176.259365 
L 613.836735 -174.407791 
L 602.44898 -162.489369 
L 591.061224 -169.399842 
L 579.673469 -155.199883 
L 568.285714 -161.723886 
L 556.897959 -153.606784 
L 545.510204 -144.465723 
L 534.122449 -152.223695 
L 522.734694 -139.731161 
L 511.346939 -145.331863 
L 499.959184 -145.510807 
L 488.571429 -139.620564 
L 477.183673 -138.027464 
L 465.795918 -134.82014 
L 454.408163 -130.612469 
L 443.020408 -127.708355 
L 431.632653 -119.423493 
L 420.244898 -124.906141 
L 408.857143 -120.375376 
L 397.469388 -119.261946 
L 386.081633 -113.062279 
L 374.693878 -112.089271 
L 363.306122 -109.408837 
L 351.918367 -106.896164 
L 340.530612 -99.421521 
L 329.142857 -100.911479 
L 317.755102 -95.364212 
L 306.367347 -91.224887 
L 294.979592 -91.065826 
L 283.591837 -85.312276 
L 272.204082 -87.173792 
L 260.816327 -84.120558 
L 249.428571 -81.387933 
L 238.040816 -78.512401 
L 226.653061 -71.744835 
L 215.265306 -70.176589 
L 203.877551 -67.161878 
L 192.489796 -63.038708 
L 181.102041 -60.129624 
L 169.714286 -58.690616 
L 158.326531 -54.852016 
L 146.938776 -51.981455 
L 135.55102 -47.98628 
L 124.163265 -44.966076 
L 112.77551 -41.434938 
L 101.387755 -37.944286 
L 90 -34.207188 
z
"/>
    </defs>
    <g clip-path="url(#p8e05f87f61)">
     <use xlink:href="#m0059d0ebf7" x="0" y="288" style="fill: #0504aa; fill-opacity: 0.3"/>
    </g>
   </g>
   <g id="matplotlib.axis_1">
    <g id="xtick_1">
     <g id="line2d_1">
      <defs>
       <path id="mf7828ee201" d="M 0 0 
L 0 3.5 
" style="stroke: #000000; stroke-width: 0.8"/>
      </defs>
      <g>
       <use xlink:href="#mf7828ee201" x="90" y="256.32" style="stroke: #000000; stroke-width: 0.8"/>
      </g>
     </g>
     <g id="text_1">
      <!-- 200 -->
      <g transform="translate(80.45625 270.918437) scale(0.1 -0.1)">
       <defs>
        <path id="DejaVuSans-32" d="M 1228 531 
L 3431 531 
L 3431 0 
L 469 0 
L 469 531 
Q 828 903 1448 1529 
Q 2069 2156 2228 2338 
Q 2531 2678 2651 2914 
Q 2772 3150 2772 3378 
Q 2772 3750 2511 3984 
Q 2250 4219 1831 4219 
Q 1534 4219 1204 4116 
Q 875 4013 500 3803 
L 500 4441 
Q 881 4594 1212 4672 
Q 1544 4750 1819 4750 
Q 2544 4750 2975 4387 
Q 3406 4025 3406 3419 
Q 3406 3131 3298 2873 
Q 3191 2616 2906 2266 
Q 2828 2175 2409 1742 
Q 1991 1309 1228 531 
z
" transform="scale(0.015625)"/>
        <path id="DejaVuSans-30" d="M 2034 4250 
Q 1547 4250 1301 3770 
Q 1056 3291 1056 2328 
Q 1056 1369 1301 889 
Q 1547 409 2034 409 
Q 2525 409 2770 889 
Q 3016 1369 3016 2328 
Q 3016 3291 2770 3770 
Q 2525 4250 2034 4250 
z
M 2034 4750 
Q 2819 4750 3233 4129 
Q 3647 3509 3647 2328 
Q 3647 1150 3233 529 
Q 2819 -91 2034 -91 
Q 1250 -91 836 529 
Q 422 1150 422 2328 
Q 422 3509 836 4129 
Q 1250 4750 2034 4750 
z
" transform="scale(0.015625)"/>
       </defs>
       <use xlink:href="#DejaVuSans-32"/>
       <use xlink:href="#DejaVuSans-30" x="63.623047"/>
       <use xlink:href="#DejaVuSans-30" x="127.246094"/>
      </g>
     </g>
    </g>
    <g id="xtick_2">
     <g id="line2d_2">
      <g>
       <use xlink:href="#mf7828ee201" x="192.489796" y="256.32" style="stroke: #000000; stroke-width: 0.8"/>
      </g>
     </g>
     <g id="text_2">
      <!-- 2000 -->
      <g transform="translate(179.764796 270.918437) scale(0.1 -0.1)">
       <use xlink:href="#DejaVuSans-32"/>
       <use xlink:href="#DejaVuSans-30" x="63.623047"/>
       <use xlink:href="#DejaVuSans-30" x="127.246094"/>
       <use xlink:href="#DejaVuSans-30" x="190.869141"/>
      </g>
     </g>
    </g>
    <g id="xtick_3">
     <g id="line2d_3">
      <g>
       <use xlink:href="#mf7828ee201" x="306.367347" y="256.32" style="stroke: #000000; stroke-width: 0.8"/>
      </g>
     </g>
     <g id="text_3">
      <!-- 4000 -->
      <g transform="translate(293.642347 270.918437) scale(0.1 -0.1)">
       <defs>
        <path id="DejaVuSans-34" d="M 2419 4116 
L 825 1625 
L 2419 1625 
L 2419 4116 
z
M 2253 4666 
L 3047 4666 
L 3047 1625 
L 3713 1625 
L 3713 1100 
L 3047 1100 
L 3047 0 
L 2419 0 
L 2419 1100 
L 313 1100 
L 313 1709 
L 2253 4666 
z
" transform="scale(0.015625)"/>
       </defs>
       <use xlink:href="#DejaVuSans-34"/>
       <use xlink:href="#DejaVuSans-30" x="63.623047"/>
       <use xlink:href="#DejaVuSans-30" x="127.246094"/>
       <use xlink:href="#DejaVuSans-30" x="190.869141"/>
      </g>
     </g>
    </g>
    <g id="xtick_4">
     <g id="line2d_4">
      <g>
       <use xlink:href="#mf7828ee201" x="420.244898" y="256.32" style="stroke: #000000; stroke-width: 0.8"/>
      </g>
     </g>
     <g id="text_4">
      <!-- 6000 -->
      <g transform="translate(407.519898 270.918437) scale(0.1 -0.1)">
       <defs>
        <path id="DejaVuSans-36" d="M 2113 2584 
Q 1688 2584 1439 2293 
Q 1191 2003 1191 1497 
Q 1191 994 1439 701 
Q 1688 409 2113 409 
Q 2538 409 2786 701 
Q 3034 994 3034 1497 
Q 3034 2003 2786 2293 
Q 2538 2584 2113 2584 
z
M 3366 4563 
L 3366 3988 
Q 3128 4100 2886 4159 
Q 2644 4219 2406 4219 
Q 1781 4219 1451 3797 
Q 1122 3375 1075 2522 
Q 1259 2794 1537 2939 
Q 1816 3084 2150 3084 
Q 2853 3084 3261 2657 
Q 3669 2231 3669 1497 
Q 3669 778 3244 343 
Q 2819 -91 2113 -91 
Q 1303 -91 875 529 
Q 447 1150 447 2328 
Q 447 3434 972 4092 
Q 1497 4750 2381 4750 
Q 2619 4750 2861 4703 
Q 3103 4656 3366 4563 
z
" transform="scale(0.015625)"/>
       </defs>
       <use xlink:href="#DejaVuSans-36"/>
       <use xlink:href="#DejaVuSans-30" x="63.623047"/>
       <use xlink:href="#DejaVuSans-30" x="127.246094"/>
       <use xlink:href="#DejaVuSans-30" x="190.869141"/>
      </g>
     </g>
    </g>
    <g id="xtick_5">
     <g id="line2d_5">
      <g>
       <use xlink:href="#mf7828ee201" x="534.122449" y="256.32" style="stroke: #000000; stroke-width: 0.8"/>
      </g>
     </g>
     <g id="text_5">
      <!-- 8000 -->
      <g transform="translate(521.397449 270.918437) scale(0.1 -0.1)">
       <defs>
        <path id="DejaVuSans-38" d="M 2034 2216 
Q 1584 2216 1326 1975 
Q 1069 1734 1069 1313 
Q 1069 891 1326 650 
Q 1584 409 2034 409 
Q 2484 409 2743 651 
Q 3003 894 3003 1313 
Q 3003 1734 2745 1975 
Q 2488 2216 2034 2216 
z
M 1403 2484 
Q 997 2584 770 2862 
Q 544 3141 544 3541 
Q 544 4100 942 4425 
Q 1341 4750 2034 4750 
Q 2731 4750 3128 4425 
Q 3525 4100 3525 3541 
Q 3525 3141 3298 2862 
Q 3072 2584 2669 2484 
Q 3125 2378 3379 2068 
Q 3634 1759 3634 1313 
Q 3634 634 3220 271 
Q 2806 -91 2034 -91 
Q 1263 -91 848 271 
Q 434 634 434 1313 
Q 434 1759 690 2068 
Q 947 2378 1403 2484 
z
M 1172 3481 
Q 1172 3119 1398 2916 
Q 1625 2713 2034 2713 
Q 2441 2713 2670 2916 
Q 2900 3119 2900 3481 
Q 2900 3844 2670 4047 
Q 2441 4250 2034 4250 
Q 1625 4250 1398 4047 
Q 1172 3844 1172 3481 
z
" transform="scale(0.015625)"/>
       </defs>
       <use xlink:href="#DejaVuSans-38"/>
       <use xlink:href="#DejaVuSans-30" x="63.623047"/>
       <use xlink:href="#DejaVuSans-30" x="127.246094"/>
       <use xlink:href="#DejaVuSans-30" x="190.869141"/>
      </g>
     </g>
    </g>
    <g id="xtick_6">
     <g id="line2d_6">
      <g>
       <use xlink:href="#mf7828ee201" x="648" y="256.32" style="stroke: #000000; stroke-width: 0.8"/>
      </g>
     </g>
     <g id="text_6">
      <!-- 10000 -->
      <g transform="translate(632.09375 270.918437) scale(0.1 -0.1)">
       <defs>
        <path id="DejaVuSans-31" d="M 794 531 
L 1825 531 
L 1825 4091 
L 703 3866 
L 703 4441 
L 1819 4666 
L 2450 4666 
L 2450 531 
L 3481 531 
L 3481 0 
L 794 0 
L 794 531 
z
" transform="scale(0.015625)"/>
       </defs>
       <use xlink:href="#DejaVuSans-31"/>
       <use xlink:href="#DejaVuSans-30" x="63.623047"/>
       <use xlink:href="#DejaVuSans-30" x="127.246094"/>
       <use xlink:href="#DejaVuSans-30" x="190.869141"/>
       <use xlink:href="#DejaVuSans-30" x="254.492188"/>
      </g>
     </g>
    </g>
    <g id="text_7">
     <!-- # Matrix Rows -->
     <g transform="translate(332.8875 284.596563) scale(0.1 -0.1)">
      <defs>
       <path id="DejaVuSans-23" d="M 3272 2816 
L 2363 2816 
L 2100 1772 
L 3016 1772 
L 3272 2816 
z
M 2803 4594 
L 2478 3297 
L 3391 3297 
L 3719 4594 
L 4219 4594 
L 3897 3297 
L 4872 3297 
L 4872 2816 
L 3775 2816 
L 3519 1772 
L 4513 1772 
L 4513 1294 
L 3397 1294 
L 3072 0 
L 2572 0 
L 2894 1294 
L 1978 1294 
L 1656 0 
L 1153 0 
L 1478 1294 
L 494 1294 
L 494 1772 
L 1594 1772 
L 1856 2816 
L 850 2816 
L 850 3297 
L 1978 3297 
L 2297 4594 
L 2803 4594 
z
" transform="scale(0.015625)"/>
       <path id="DejaVuSans-20" transform="scale(0.015625)"/>
       <path id="DejaVuSans-4d" d="M 628 4666 
L 1569 4666 
L 2759 1491 
L 3956 4666 
L 4897 4666 
L 4897 0 
L 4281 0 
L 4281 4097 
L 3078 897 
L 2444 897 
L 1241 4097 
L 1241 0 
L 628 0 
L 628 4666 
z
" transform="scale(0.015625)"/>
       <path id="DejaVuSans-61" d="M 2194 1759 
Q 1497 1759 1228 1600 
Q 959 1441 959 1056 
Q 959 750 1161 570 
Q 1363 391 1709 391 
Q 2188 391 2477 730 
Q 2766 1069 2766 1631 
L 2766 1759 
L 2194 1759 
z
M 3341 1997 
L 3341 0 
L 2766 0 
L 2766 531 
Q 2569 213 2275 61 
Q 1981 -91 1556 -91 
Q 1019 -91 701 211 
Q 384 513 384 1019 
Q 384 1609 779 1909 
Q 1175 2209 1959 2209 
L 2766 2209 
L 2766 2266 
Q 2766 2663 2505 2880 
Q 2244 3097 1772 3097 
Q 1472 3097 1187 3025 
Q 903 2953 641 2809 
L 641 3341 
Q 956 3463 1253 3523 
Q 1550 3584 1831 3584 
Q 2591 3584 2966 3190 
Q 3341 2797 3341 1997 
z
" transform="scale(0.015625)"/>
       <path id="DejaVuSans-74" d="M 1172 4494 
L 1172 3500 
L 2356 3500 
L 2356 3053 
L 1172 3053 
L 1172 1153 
Q 1172 725 1289 603 
Q 1406 481 1766 481 
L 2356 481 
L 2356 0 
L 1766 0 
Q 1100 0 847 248 
Q 594 497 594 1153 
L 594 3053 
L 172 3053 
L 172 3500 
L 594 3500 
L 594 4494 
L 1172 4494 
z
" transform="scale(0.015625)"/>
       <path id="DejaVuSans-72" d="M 2631 2963 
Q 2534 3019 2420 3045 
Q 2306 3072 2169 3072 
Q 1681 3072 1420 2755 
Q 1159 2438 1159 1844 
L 1159 0 
L 581 0 
L 581 3500 
L 1159 3500 
L 1159 2956 
Q 1341 3275 1631 3429 
Q 1922 3584 2338 3584 
Q 2397 3584 2469 3576 
Q 2541 3569 2628 3553 
L 2631 2963 
z
" transform="scale(0.015625)"/>
       <path id="DejaVuSans-69" d="M 603 3500 
L 1178 3500 
L 1178 0 
L 603 0 
L 603 3500 
z
M 603 4863 
L 1178 4863 
L 1178 4134 
L 603 4134 
L 603 4863 
z
" transform="scale(0.015625)"/>
       <path id="DejaVuSans-78" d="M 3513 3500 
L 2247 1797 
L 3578 0 
L 2900 0 
L 1881 1375 
L 863 0 
L 184 0 
L 1544 1831 
L 300 3500 
L 978 3500 
L 1906 2253 
L 2834 3500 
L 3513 3500 
z
" transform="scale(0.015625)"/>
       <path id="DejaVuSans-52" d="M 2841 2188 
Q 3044 2119 3236 1894 
Q 3428 1669 3622 1275 
L 4263 0 
L 3584 0 
L 2988 1197 
Q 2756 1666 2539 1819 
Q 2322 1972 1947 1972 
L 1259 1972 
L 1259 0 
L 628 0 
L 628 4666 
L 2053 4666 
Q 2853 4666 3247 4331 
Q 3641 3997 3641 3322 
Q 3641 2881 3436 2590 
Q 3231 2300 2841 2188 
z
M 1259 4147 
L 1259 2491 
L 2053 2491 
Q 2509 2491 2742 2702 
Q 2975 2913 2975 3322 
Q 2975 3731 2742 3939 
Q 2509 4147 2053 4147 
L 1259 4147 
z
" transform="scale(0.015625)"/>
       <path id="DejaVuSans-6f" d="M 1959 3097 
Q 1497 3097 1228 2736 
Q 959 2375 959 1747 
Q 959 1119 1226 758 
Q 1494 397 1959 397 
Q 2419 397 2687 759 
Q 2956 1122 2956 1747 
Q 2956 2369 2687 2733 
Q 2419 3097 1959 3097 
z
M 1959 3584 
Q 2709 3584 3137 3096 
Q 3566 2609 3566 1747 
Q 3566 888 3137 398 
Q 2709 -91 1959 -91 
Q 1206 -91 779 398 
Q 353 888 353 1747 
Q 353 2609 779 3096 
Q 1206 3584 1959 3584 
z
" transform="scale(0.015625)"/>
       <path id="DejaVuSans-77" d="M 269 3500 
L 844 3500 
L 1563 769 
L 2278 3500 
L 2956 3500 
L 3675 769 
L 4391 3500 
L 4966 3500 
L 4050 0 
L 3372 0 
L 2619 2869 
L 1863 0 
L 1184 0 
L 269 3500 
z
" transform="scale(0.015625)"/>
       <path id="DejaVuSans-73" d="M 2834 3397 
L 2834 2853 
Q 2591 2978 2328 3040 
Q 2066 3103 1784 3103 
Q 1356 3103 1142 2972 
Q 928 2841 928 2578 
Q 928 2378 1081 2264 
Q 1234 2150 1697 2047 
L 1894 2003 
Q 2506 1872 2764 1633 
Q 3022 1394 3022 966 
Q 3022 478 2636 193 
Q 2250 -91 1575 -91 
Q 1294 -91 989 -36 
Q 684 19 347 128 
L 347 722 
Q 666 556 975 473 
Q 1284 391 1588 391 
Q 1994 391 2212 530 
Q 2431 669 2431 922 
Q 2431 1156 2273 1281 
Q 2116 1406 1581 1522 
L 1381 1569 
Q 847 1681 609 1914 
Q 372 2147 372 2553 
Q 372 3047 722 3315 
Q 1072 3584 1716 3584 
Q 2034 3584 2315 3537 
Q 2597 3491 2834 3397 
z
" transform="scale(0.015625)"/>
      </defs>
      <use xlink:href="#DejaVuSans-23"/>
      <use xlink:href="#DejaVuSans-20" x="83.789062"/>
      <use xlink:href="#DejaVuSans-4d" x="115.576172"/>
      <use xlink:href="#DejaVuSans-61" x="201.855469"/>
      <use xlink:href="#DejaVuSans-74" x="263.134766"/>
      <use xlink:href="#DejaVuSans-72" x="302.34375"/>
      <use xlink:href="#DejaVuSans-69" x="343.457031"/>
      <use xlink:href="#DejaVuSans-78" x="371.240234"/>
      <use xlink:href="#DejaVuSans-20" x="430.419922"/>
      <use xlink:href="#DejaVuSans-52" x="462.207031"/>
      <use xlink:href="#DejaVuSans-6f" x="527.189453"/>
      <use xlink:href="#DejaVuSans-77" x="588.371094"/>
      <use xlink:href="#DejaVuSans-73" x="670.158203"/>
     </g>
    </g>
   </g>
   <g id="matplotlib.axis_2">
    <g id="ytick_1">
     <g id="line2d_7">
      <defs>
       <path id="m1d99cfb89a" d="M 0 0 
L -3.5 0 
" style="stroke: #000000; stroke-width: 0.8"/>
      </defs>
      <g>
       <use xlink:href="#m1d99cfb89a" x="90" y="232.709322" style="stroke: #000000; stroke-width: 0.8"/>
      </g>
     </g>
     <g id="text_8">
      <!-- 1000 -->
      <g transform="translate(57.55 236.508541) scale(0.1 -0.1)">
       <use xlink:href="#DejaVuSans-31"/>
       <use xlink:href="#DejaVuSans-30" x="63.623047"/>
       <use xlink:href="#DejaVuSans-30" x="127.246094"/>
       <use xlink:href="#DejaVuSans-30" x="190.869141"/>
      </g>
     </g>
    </g>
    <g id="ytick_2">
     <g id="line2d_8">
      <g>
       <use xlink:href="#m1d99cfb89a" x="90" y="207.855977" style="stroke: #000000; stroke-width: 0.8"/>
      </g>
     </g>
     <g id="text_9">
      <!-- 2000 -->
      <g transform="translate(57.55 211.655195) scale(0.1 -0.1)">
       <use xlink:href="#DejaVuSans-32"/>
       <use xlink:href="#DejaVuSans-30" x="63.623047"/>
       <use xlink:href="#DejaVuSans-30" x="127.246094"/>
       <use xlink:href="#DejaVuSans-30" x="190.869141"/>
      </g>
     </g>
    </g>
    <g id="ytick_3">
     <g id="line2d_9">
      <g>
       <use xlink:href="#m1d99cfb89a" x="90" y="183.002631" style="stroke: #000000; stroke-width: 0.8"/>
      </g>
     </g>
     <g id="text_10">
      <!-- 3000 -->
      <g transform="translate(57.55 186.80185) scale(0.1 -0.1)">
       <defs>
        <path id="DejaVuSans-33" d="M 2597 2516 
Q 3050 2419 3304 2112 
Q 3559 1806 3559 1356 
Q 3559 666 3084 287 
Q 2609 -91 1734 -91 
Q 1441 -91 1130 -33 
Q 819 25 488 141 
L 488 750 
Q 750 597 1062 519 
Q 1375 441 1716 441 
Q 2309 441 2620 675 
Q 2931 909 2931 1356 
Q 2931 1769 2642 2001 
Q 2353 2234 1838 2234 
L 1294 2234 
L 1294 2753 
L 1863 2753 
Q 2328 2753 2575 2939 
Q 2822 3125 2822 3475 
Q 2822 3834 2567 4026 
Q 2313 4219 1838 4219 
Q 1578 4219 1281 4162 
Q 984 4106 628 3988 
L 628 4550 
Q 988 4650 1302 4700 
Q 1616 4750 1894 4750 
Q 2613 4750 3031 4423 
Q 3450 4097 3450 3541 
Q 3450 3153 3228 2886 
Q 3006 2619 2597 2516 
z
" transform="scale(0.015625)"/>
       </defs>
       <use xlink:href="#DejaVuSans-33"/>
       <use xlink:href="#DejaVuSans-30" x="63.623047"/>
       <use xlink:href="#DejaVuSans-30" x="127.246094"/>
       <use xlink:href="#DejaVuSans-30" x="190.869141"/>
      </g>
     </g>
    </g>
    <g id="ytick_4">
     <g id="line2d_10">
      <g>
       <use xlink:href="#m1d99cfb89a" x="90" y="158.149286" style="stroke: #000000; stroke-width: 0.8"/>
      </g>
     </g>
     <g id="text_11">
      <!-- 4000 -->
      <g transform="translate(57.55 161.948505) scale(0.1 -0.1)">
       <use xlink:href="#DejaVuSans-34"/>
       <use xlink:href="#DejaVuSans-30" x="63.623047"/>
       <use xlink:href="#DejaVuSans-30" x="127.246094"/>
       <use xlink:href="#DejaVuSans-30" x="190.869141"/>
      </g>
     </g>
    </g>
    <g id="ytick_5">
     <g id="line2d_11">
      <g>
       <use xlink:href="#m1d99cfb89a" x="90" y="133.295941" style="stroke: #000000; stroke-width: 0.8"/>
      </g>
     </g>
     <g id="text_12">
      <!-- 5000 -->
      <g transform="translate(57.55 137.09516) scale(0.1 -0.1)">
       <defs>
        <path id="DejaVuSans-35" d="M 691 4666 
L 3169 4666 
L 3169 4134 
L 1269 4134 
L 1269 2991 
Q 1406 3038 1543 3061 
Q 1681 3084 1819 3084 
Q 2600 3084 3056 2656 
Q 3513 2228 3513 1497 
Q 3513 744 3044 326 
Q 2575 -91 1722 -91 
Q 1428 -91 1123 -41 
Q 819 9 494 109 
L 494 744 
Q 775 591 1075 516 
Q 1375 441 1709 441 
Q 2250 441 2565 725 
Q 2881 1009 2881 1497 
Q 2881 1984 2565 2268 
Q 2250 2553 1709 2553 
Q 1456 2553 1204 2497 
Q 953 2441 691 2322 
L 691 4666 
z
" transform="scale(0.015625)"/>
       </defs>
       <use xlink:href="#DejaVuSans-35"/>
       <use xlink:href="#DejaVuSans-30" x="63.623047"/>
       <use xlink:href="#DejaVuSans-30" x="127.246094"/>
       <use xlink:href="#DejaVuSans-30" x="190.869141"/>
      </g>
     </g>
    </g>
    <g id="ytick_6">
     <g id="line2d_12">
      <g>
       <use xlink:href="#m1d99cfb89a" x="90" y="108.442596" style="stroke: #000000; stroke-width: 0.8"/>
      </g>
     </g>
     <g id="text_13">
      <!-- 6000 -->
      <g transform="translate(57.55 112.241814) scale(0.1 -0.1)">
       <use xlink:href="#DejaVuSans-36"/>
       <use xlink:href="#DejaVuSans-30" x="63.623047"/>
       <use xlink:href="#DejaVuSans-30" x="127.246094"/>
       <use xlink:href="#DejaVuSans-30" x="190.869141"/>
      </g>
     </g>
    </g>
    <g id="ytick_7">
     <g id="line2d_13">
      <g>
       <use xlink:href="#m1d99cfb89a" x="90" y="83.58925" style="stroke: #000000; stroke-width: 0.8"/>
      </g>
     </g>
     <g id="text_14">
      <!-- 7000 -->
      <g transform="translate(57.55 87.388469) scale(0.1 -0.1)">
       <defs>
        <path id="DejaVuSans-37" d="M 525 4666 
L 3525 4666 
L 3525 4397 
L 1831 0 
L 1172 0 
L 2766 4134 
L 525 4134 
L 525 4666 
z
" transform="scale(0.015625)"/>
       </defs>
       <use xlink:href="#DejaVuSans-37"/>
       <use xlink:href="#DejaVuSans-30" x="63.623047"/>
       <use xlink:href="#DejaVuSans-30" x="127.246094"/>
       <use xlink:href="#DejaVuSans-30" x="190.869141"/>
      </g>
     </g>
    </g>
    <g id="ytick_8">
     <g id="line2d_14">
      <g>
       <use xlink:href="#m1d99cfb89a" x="90" y="58.735905" style="stroke: #000000; stroke-width: 0.8"/>
      </g>
     </g>
     <g id="text_15">
      <!-- 8000 -->
      <g transform="translate(57.55 62.535124) scale(0.1 -0.1)">
       <use xlink:href="#DejaVuSans-38"/>
       <use xlink:href="#DejaVuSans-30" x="63.623047"/>
       <use xlink:href="#DejaVuSans-30" x="127.246094"/>
       <use xlink:href="#DejaVuSans-30" x="190.869141"/>
      </g>
     </g>
    </g>
    <g id="text_16">
     <!-- # Rows/Columns to be -->
     <g transform="translate(40.2725 202.106406) rotate(-90) scale(0.1 -0.1)">
      <defs>
       <path id="DejaVuSans-2f" d="M 1625 4666 
L 2156 4666 
L 531 -594 
L 0 -594 
L 1625 4666 
z
" transform="scale(0.015625)"/>
       <path id="DejaVuSans-43" d="M 4122 4306 
L 4122 3641 
Q 3803 3938 3442 4084 
Q 3081 4231 2675 4231 
Q 1875 4231 1450 3742 
Q 1025 3253 1025 2328 
Q 1025 1406 1450 917 
Q 1875 428 2675 428 
Q 3081 428 3442 575 
Q 3803 722 4122 1019 
L 4122 359 
Q 3791 134 3420 21 
Q 3050 -91 2638 -91 
Q 1578 -91 968 557 
Q 359 1206 359 2328 
Q 359 3453 968 4101 
Q 1578 4750 2638 4750 
Q 3056 4750 3426 4639 
Q 3797 4528 4122 4306 
z
" transform="scale(0.015625)"/>
       <path id="DejaVuSans-6c" d="M 603 4863 
L 1178 4863 
L 1178 0 
L 603 0 
L 603 4863 
z
" transform="scale(0.015625)"/>
       <path id="DejaVuSans-75" d="M 544 1381 
L 544 3500 
L 1119 3500 
L 1119 1403 
Q 1119 906 1312 657 
Q 1506 409 1894 409 
Q 2359 409 2629 706 
Q 2900 1003 2900 1516 
L 2900 3500 
L 3475 3500 
L 3475 0 
L 2900 0 
L 2900 538 
Q 2691 219 2414 64 
Q 2138 -91 1772 -91 
Q 1169 -91 856 284 
Q 544 659 544 1381 
z
M 1991 3584 
L 1991 3584 
z
" transform="scale(0.015625)"/>
       <path id="DejaVuSans-6d" d="M 3328 2828 
Q 3544 3216 3844 3400 
Q 4144 3584 4550 3584 
Q 5097 3584 5394 3201 
Q 5691 2819 5691 2113 
L 5691 0 
L 5113 0 
L 5113 2094 
Q 5113 2597 4934 2840 
Q 4756 3084 4391 3084 
Q 3944 3084 3684 2787 
Q 3425 2491 3425 1978 
L 3425 0 
L 2847 0 
L 2847 2094 
Q 2847 2600 2669 2842 
Q 2491 3084 2119 3084 
Q 1678 3084 1418 2786 
Q 1159 2488 1159 1978 
L 1159 0 
L 581 0 
L 581 3500 
L 1159 3500 
L 1159 2956 
Q 1356 3278 1631 3431 
Q 1906 3584 2284 3584 
Q 2666 3584 2933 3390 
Q 3200 3197 3328 2828 
z
" transform="scale(0.015625)"/>
       <path id="DejaVuSans-6e" d="M 3513 2113 
L 3513 0 
L 2938 0 
L 2938 2094 
Q 2938 2591 2744 2837 
Q 2550 3084 2163 3084 
Q 1697 3084 1428 2787 
Q 1159 2491 1159 1978 
L 1159 0 
L 581 0 
L 581 3500 
L 1159 3500 
L 1159 2956 
Q 1366 3272 1645 3428 
Q 1925 3584 2291 3584 
Q 2894 3584 3203 3211 
Q 3513 2838 3513 2113 
z
" transform="scale(0.015625)"/>
       <path id="DejaVuSans-62" d="M 3116 1747 
Q 3116 2381 2855 2742 
Q 2594 3103 2138 3103 
Q 1681 3103 1420 2742 
Q 1159 2381 1159 1747 
Q 1159 1113 1420 752 
Q 1681 391 2138 391 
Q 2594 391 2855 752 
Q 3116 1113 3116 1747 
z
M 1159 2969 
Q 1341 3281 1617 3432 
Q 1894 3584 2278 3584 
Q 2916 3584 3314 3078 
Q 3713 2572 3713 1747 
Q 3713 922 3314 415 
Q 2916 -91 2278 -91 
Q 1894 -91 1617 61 
Q 1341 213 1159 525 
L 1159 0 
L 581 0 
L 581 4863 
L 1159 4863 
L 1159 2969 
z
" transform="scale(0.015625)"/>
       <path id="DejaVuSans-65" d="M 3597 1894 
L 3597 1613 
L 953 1613 
Q 991 1019 1311 708 
Q 1631 397 2203 397 
Q 2534 397 2845 478 
Q 3156 559 3463 722 
L 3463 178 
Q 3153 47 2828 -22 
Q 2503 -91 2169 -91 
Q 1331 -91 842 396 
Q 353 884 353 1716 
Q 353 2575 817 3079 
Q 1281 3584 2069 3584 
Q 2775 3584 3186 3129 
Q 3597 2675 3597 1894 
z
M 3022 2063 
Q 3016 2534 2758 2815 
Q 2500 3097 2075 3097 
Q 1594 3097 1305 2825 
Q 1016 2553 972 2059 
L 3022 2063 
z
" transform="scale(0.015625)"/>
      </defs>
      <use xlink:href="#DejaVuSans-23"/>
      <use xlink:href="#DejaVuSans-20" x="83.789062"/>
      <use xlink:href="#DejaVuSans-52" x="115.576172"/>
      <use xlink:href="#DejaVuSans-6f" x="180.558594"/>
      <use xlink:href="#DejaVuSans-77" x="241.740234"/>
      <use xlink:href="#DejaVuSans-73" x="323.527344"/>
      <use xlink:href="#DejaVuSans-2f" x="375.626953"/>
      <use xlink:href="#DejaVuSans-43" x="409.318359"/>
      <use xlink:href="#DejaVuSans-6f" x="479.142578"/>
      <use xlink:href="#DejaVuSans-6c" x="540.324219"/>
      <use xlink:href="#DejaVuSans-75" x="568.107422"/>
      <use xlink:href="#DejaVuSans-6d" x="631.486328"/>
      <use xlink:href="#DejaVuSans-6e" x="728.898438"/>
      <use xlink:href="#DejaVuSans-73" x="792.277344"/>
      <use xlink:href="#DejaVuSans-20" x="844.376953"/>
      <use xlink:href="#DejaVuSans-74" x="876.164062"/>
      <use xlink:href="#DejaVuSans-6f" x="915.373047"/>
      <use xlink:href="#DejaVuSans-20" x="976.554688"/>
      <use xlink:href="#DejaVuSans-62" x="1008.341797"/>
      <use xlink:href="#DejaVuSans-65" x="1071.818359"/>
     </g>
     <!-- removed based on pivot -->
     <g transform="translate(51.470312 206.230625) rotate(-90) scale(0.1 -0.1)">
      <defs>
       <path id="DejaVuSans-76" d="M 191 3500 
L 800 3500 
L 1894 563 
L 2988 3500 
L 3597 3500 
L 2284 0 
L 1503 0 
L 191 3500 
z
" transform="scale(0.015625)"/>
       <path id="DejaVuSans-64" d="M 2906 2969 
L 2906 4863 
L 3481 4863 
L 3481 0 
L 2906 0 
L 2906 525 
Q 2725 213 2448 61 
Q 2172 -91 1784 -91 
Q 1150 -91 751 415 
Q 353 922 353 1747 
Q 353 2572 751 3078 
Q 1150 3584 1784 3584 
Q 2172 3584 2448 3432 
Q 2725 3281 2906 2969 
z
M 947 1747 
Q 947 1113 1208 752 
Q 1469 391 1925 391 
Q 2381 391 2643 752 
Q 2906 1113 2906 1747 
Q 2906 2381 2643 2742 
Q 2381 3103 1925 3103 
Q 1469 3103 1208 2742 
Q 947 2381 947 1747 
z
" transform="scale(0.015625)"/>
       <path id="DejaVuSans-70" d="M 1159 525 
L 1159 -1331 
L 581 -1331 
L 581 3500 
L 1159 3500 
L 1159 2969 
Q 1341 3281 1617 3432 
Q 1894 3584 2278 3584 
Q 2916 3584 3314 3078 
Q 3713 2572 3713 1747 
Q 3713 922 3314 415 
Q 2916 -91 2278 -91 
Q 1894 -91 1617 61 
Q 1341 213 1159 525 
z
M 3116 1747 
Q 3116 2381 2855 2742 
Q 2594 3103 2138 3103 
Q 1681 3103 1420 2742 
Q 1159 2381 1159 1747 
Q 1159 1113 1420 752 
Q 1681 391 2138 391 
Q 2594 391 2855 752 
Q 3116 1113 3116 1747 
z
" transform="scale(0.015625)"/>
      </defs>
      <use xlink:href="#DejaVuSans-72"/>
      <use xlink:href="#DejaVuSans-65" x="38.863281"/>
      <use xlink:href="#DejaVuSans-6d" x="100.386719"/>
      <use xlink:href="#DejaVuSans-6f" x="197.798828"/>
      <use xlink:href="#DejaVuSans-76" x="258.980469"/>
      <use xlink:href="#DejaVuSans-65" x="318.160156"/>
      <use xlink:href="#DejaVuSans-64" x="379.683594"/>
      <use xlink:href="#DejaVuSans-20" x="443.160156"/>
      <use xlink:href="#DejaVuSans-62" x="474.947266"/>
      <use xlink:href="#DejaVuSans-61" x="538.423828"/>
      <use xlink:href="#DejaVuSans-73" x="599.703125"/>
      <use xlink:href="#DejaVuSans-65" x="651.802734"/>
      <use xlink:href="#DejaVuSans-64" x="713.326172"/>
      <use xlink:href="#DejaVuSans-20" x="776.802734"/>
      <use xlink:href="#DejaVuSans-6f" x="808.589844"/>
      <use xlink:href="#DejaVuSans-6e" x="869.771484"/>
      <use xlink:href="#DejaVuSans-20" x="933.150391"/>
      <use xlink:href="#DejaVuSans-70" x="964.9375"/>
      <use xlink:href="#DejaVuSans-69" x="1028.414062"/>
      <use xlink:href="#DejaVuSans-76" x="1056.197266"/>
      <use xlink:href="#DejaVuSans-6f" x="1115.376953"/>
      <use xlink:href="#DejaVuSans-74" x="1176.558594"/>
     </g>
    </g>
   </g>
   <g id="line2d_15">
    <path d="M 90 253.334373 
L 101.387755 249.227028 
L 112.77551 245.092438 
L 124.163265 241.008731 
L 135.55102 237.06387 
L 146.938776 233.013855 
L 158.326531 229.301257 
L 169.714286 225.203889 
L 181.102041 221.318897 
L 192.489796 217.473059 
L 203.877551 213.250955 
L 215.265306 210.048079 
L 226.653061 206.206634 
L 238.040816 202.501312 
L 249.428571 198.462611 
L 260.816327 194.610765 
L 272.204082 191.260447 
L 283.591837 187.423389 
L 294.979592 183.344166 
L 306.367347 180.218516 
L 317.755102 176.549535 
L 329.142857 172.43192 
L 340.530612 169.886415 
L 351.918367 166.325254 
L 363.306122 162.133793 
L 374.693878 158.290205 
L 386.081633 155.348445 
L 397.469388 151.589805 
L 408.857143 147.140205 
L 420.244898 143.755198 
L 431.632653 139.65895 
L 443.020408 136.593396 
L 454.408163 133.507114 
L 465.795918 129.260012 
L 477.183673 125.90688 
L 488.571429 122.660958 
L 499.959184 119.64421 
L 511.346939 116.263477 
L 522.734694 113.078385 
L 534.122449 107.881482 
L 545.510204 106.921621 
L 556.897959 102.105713 
L 568.285714 97.800754 
L 579.673469 95.155886 
L 591.061224 93.48218 
L 602.44898 89.155604 
L 613.836735 85.450325 
L 625.22449 81.084829 
L 636.612245 76.148762 
L 648 76.052225 
" clip-path="url(#p8e05f87f61)" style="fill: none; stroke: #0504aa; stroke-width: 1.5; stroke-linecap: square"/>
   </g>
   <g id="line2d_16">
    <path d="M 90 256.32 
L 101.387755 255.077333 
L 112.77551 253.834665 
L 124.163265 252.591998 
L 135.55102 251.349331 
L 146.938776 250.106664 
L 158.326531 248.863996 
L 169.714286 247.621329 
L 181.102041 246.378662 
L 192.489796 245.135995 
L 203.877551 243.893327 
L 215.265306 242.65066 
L 226.653061 241.407993 
L 238.040816 240.165326 
L 249.428571 238.922658 
L 260.816327 237.679991 
L 272.204082 236.437324 
L 283.591837 235.194657 
L 294.979592 233.951989 
L 306.367347 232.709322 
L 317.755102 231.466655 
L 329.142857 230.223987 
L 340.530612 228.98132 
L 351.918367 227.738653 
L 363.306122 226.495986 
L 374.693878 225.253318 
L 386.081633 224.010651 
L 397.469388 222.767984 
L 408.857143 221.525317 
L 420.244898 220.282649 
L 431.632653 219.039982 
L 443.020408 217.797315 
L 454.408163 216.554648 
L 465.795918 215.31198 
L 477.183673 214.069313 
L 488.571429 212.826646 
L 499.959184 211.583979 
L 511.346939 210.341311 
L 522.734694 209.098644 
L 534.122449 207.855977 
L 545.510204 206.613309 
L 556.897959 205.370642 
L 568.285714 204.127975 
L 579.673469 202.885308 
L 591.061224 201.64264 
L 602.44898 200.399973 
L 613.836735 199.157306 
L 625.22449 197.914639 
L 636.612245 196.671971 
L 648 195.429304 
" clip-path="url(#p8e05f87f61)" style="fill: none; stroke: #e50000; stroke-width: 1.5; stroke-linecap: square"/>
   </g>
   <g id="patch_3">
    <path d="M 90 256.32 
L 90 34.56 
" style="fill: none; stroke: #000000; stroke-width: 0.8; stroke-linejoin: miter; stroke-linecap: square"/>
   </g>
   <g id="patch_4">
    <path d="M 648 256.32 
L 648 34.56 
" style="fill: none; stroke: #000000; stroke-width: 0.8; stroke-linejoin: miter; stroke-linecap: square"/>
   </g>
   <g id="patch_5">
    <path d="M 90 256.32 
L 648 256.32 
" style="fill: none; stroke: #000000; stroke-width: 0.8; stroke-linejoin: miter; stroke-linecap: square"/>
   </g>
   <g id="patch_6">
    <path d="M 90 34.56 
L 648 34.56 
" style="fill: none; stroke: #000000; stroke-width: 0.8; stroke-linejoin: miter; stroke-linecap: square"/>
   </g>
  </g>
  <g id="axes_2">
   <g id="matplotlib.axis_3">
    <g id="ytick_9">
     <g id="line2d_17">
      <defs>
       <path id="mf671cc83aa" d="M 0 0 
L 3.5 0 
" style="stroke: #000000; stroke-width: 0.8"/>
      </defs>
      <g>
       <use xlink:href="#mf671cc83aa" x="648" y="256.32" style="stroke: #000000; stroke-width: 0.8"/>
      </g>
     </g>
     <g id="text_17">
      <!-- 0% -->
      <g transform="translate(655 260.119219) scale(0.1 -0.1)">
       <defs>
        <path id="DejaVuSans-25" d="M 4653 2053 
Q 4381 2053 4226 1822 
Q 4072 1591 4072 1178 
Q 4072 772 4226 539 
Q 4381 306 4653 306 
Q 4919 306 5073 539 
Q 5228 772 5228 1178 
Q 5228 1588 5073 1820 
Q 4919 2053 4653 2053 
z
M 4653 2450 
Q 5147 2450 5437 2106 
Q 5728 1763 5728 1178 
Q 5728 594 5436 251 
Q 5144 -91 4653 -91 
Q 4153 -91 3862 251 
Q 3572 594 3572 1178 
Q 3572 1766 3864 2108 
Q 4156 2450 4653 2450 
z
M 1428 4353 
Q 1159 4353 1004 4120 
Q 850 3888 850 3481 
Q 850 3069 1003 2837 
Q 1156 2606 1428 2606 
Q 1700 2606 1854 2837 
Q 2009 3069 2009 3481 
Q 2009 3884 1853 4118 
Q 1697 4353 1428 4353 
z
M 4250 4750 
L 4750 4750 
L 1831 -91 
L 1331 -91 
L 4250 4750 
z
M 1428 4750 
Q 1922 4750 2215 4408 
Q 2509 4066 2509 3481 
Q 2509 2891 2217 2550 
Q 1925 2209 1428 2209 
Q 931 2209 642 2551 
Q 353 2894 353 3481 
Q 353 4063 643 4406 
Q 934 4750 1428 4750 
z
" transform="scale(0.015625)"/>
       </defs>
       <use xlink:href="#DejaVuSans-30"/>
       <use xlink:href="#DejaVuSans-25" x="63.623047"/>
      </g>
     </g>
    </g>
    <g id="ytick_10">
     <g id="line2d_18">
      <g>
       <use xlink:href="#mf671cc83aa" x="648" y="211.968" style="stroke: #000000; stroke-width: 0.8"/>
      </g>
     </g>
     <g id="text_18">
      <!-- 1% -->
      <g transform="translate(655 215.767219) scale(0.1 -0.1)">
       <use xlink:href="#DejaVuSans-31"/>
       <use xlink:href="#DejaVuSans-25" x="63.623047"/>
      </g>
     </g>
    </g>
    <g id="ytick_11">
     <g id="line2d_19">
      <g>
       <use xlink:href="#mf671cc83aa" x="648" y="167.616" style="stroke: #000000; stroke-width: 0.8"/>
      </g>
     </g>
     <g id="text_19">
      <!-- 2% -->
      <g transform="translate(655 171.415219) scale(0.1 -0.1)">
       <use xlink:href="#DejaVuSans-32"/>
       <use xlink:href="#DejaVuSans-25" x="63.623047"/>
      </g>
     </g>
    </g>
    <g id="ytick_12">
     <g id="line2d_20">
      <g>
       <use xlink:href="#mf671cc83aa" x="648" y="123.264" style="stroke: #000000; stroke-width: 0.8"/>
      </g>
     </g>
     <g id="text_20">
      <!-- 3% -->
      <g transform="translate(655 127.063219) scale(0.1 -0.1)">
       <use xlink:href="#DejaVuSans-33"/>
       <use xlink:href="#DejaVuSans-25" x="63.623047"/>
      </g>
     </g>
    </g>
    <g id="ytick_13">
     <g id="line2d_21">
      <g>
       <use xlink:href="#mf671cc83aa" x="648" y="78.912" style="stroke: #000000; stroke-width: 0.8"/>
      </g>
     </g>
     <g id="text_21">
      <!-- 4% -->
      <g transform="translate(655 82.711219) scale(0.1 -0.1)">
       <use xlink:href="#DejaVuSans-34"/>
       <use xlink:href="#DejaVuSans-25" x="63.623047"/>
      </g>
     </g>
    </g>
    <g id="ytick_14">
     <g id="line2d_22">
      <g>
       <use xlink:href="#mf671cc83aa" x="648" y="34.56" style="stroke: #000000; stroke-width: 0.8"/>
      </g>
     </g>
     <g id="text_22">
      <!-- 5% -->
      <g transform="translate(655 38.359219) scale(0.1 -0.1)">
       <use xlink:href="#DejaVuSans-35"/>
       <use xlink:href="#DejaVuSans-25" x="63.623047"/>
      </g>
     </g>
    </g>
    <g id="text_23">
     <!-- Hard failure rate -->
     <g transform="translate(682.4625 186.531406) rotate(-90) scale(0.1 -0.1)">
      <defs>
       <path id="DejaVuSans-48" d="M 628 4666 
L 1259 4666 
L 1259 2753 
L 3553 2753 
L 3553 4666 
L 4184 4666 
L 4184 0 
L 3553 0 
L 3553 2222 
L 1259 2222 
L 1259 0 
L 628 0 
L 628 4666 
z
" transform="scale(0.015625)"/>
       <path id="DejaVuSans-66" d="M 2375 4863 
L 2375 4384 
L 1825 4384 
Q 1516 4384 1395 4259 
Q 1275 4134 1275 3809 
L 1275 3500 
L 2222 3500 
L 2222 3053 
L 1275 3053 
L 1275 0 
L 697 0 
L 697 3053 
L 147 3053 
L 147 3500 
L 697 3500 
L 697 3744 
Q 697 4328 969 4595 
Q 1241 4863 1831 4863 
L 2375 4863 
z
" transform="scale(0.015625)"/>
      </defs>
      <use xlink:href="#DejaVuSans-48"/>
      <use xlink:href="#DejaVuSans-61" x="75.195312"/>
      <use xlink:href="#DejaVuSans-72" x="136.474609"/>
      <use xlink:href="#DejaVuSans-64" x="175.837891"/>
      <use xlink:href="#DejaVuSans-20" x="239.314453"/>
      <use xlink:href="#DejaVuSans-66" x="271.101562"/>
      <use xlink:href="#DejaVuSans-61" x="306.306641"/>
      <use xlink:href="#DejaVuSans-69" x="367.585938"/>
      <use xlink:href="#DejaVuSans-6c" x="395.369141"/>
      <use xlink:href="#DejaVuSans-75" x="423.152344"/>
      <use xlink:href="#DejaVuSans-72" x="486.53125"/>
      <use xlink:href="#DejaVuSans-65" x="525.394531"/>
      <use xlink:href="#DejaVuSans-20" x="586.917969"/>
      <use xlink:href="#DejaVuSans-72" x="618.705078"/>
      <use xlink:href="#DejaVuSans-61" x="659.818359"/>
      <use xlink:href="#DejaVuSans-74" x="721.097656"/>
      <use xlink:href="#DejaVuSans-65" x="760.306641"/>
     </g>
    </g>
   </g>
   <g id="line2d_23">
    <path d="M 90 194.2272 
L 101.387755 243.0144 
L 112.77551 252.9936 
L 124.163265 255.2112 
L 135.55102 256.32 
L 146.938776 254.1024 
L 158.326531 256.32 
L 169.714286 255.2112 
L 181.102041 256.32 
L 192.489796 256.32 
L 203.877551 256.32 
L 215.265306 256.32 
L 226.653061 256.32 
L 238.040816 255.2112 
L 249.428571 256.32 
L 260.816327 256.32 
L 272.204082 256.32 
L 283.591837 256.32 
L 294.979592 256.32 
L 306.367347 256.32 
L 317.755102 256.32 
L 329.142857 256.32 
L 340.530612 256.32 
L 351.918367 256.32 
L 363.306122 256.32 
L 374.693878 256.32 
L 386.081633 256.32 
L 397.469388 256.32 
L 408.857143 256.32 
L 420.244898 256.32 
L 431.632653 256.32 
L 443.020408 256.32 
L 454.408163 256.32 
L 465.795918 256.32 
L 477.183673 256.32 
L 488.571429 256.32 
L 499.959184 256.32 
L 511.346939 256.32 
L 522.734694 256.32 
L 534.122449 256.32 
L 545.510204 256.32 
L 556.897959 256.32 
L 568.285714 256.32 
L 579.673469 256.32 
L 591.061224 256.32 
L 602.44898 256.32 
L 613.836735 256.32 
L 625.22449 256.32 
L 636.612245 256.32 
L 648 256.32 
" clip-path="url(#p8e05f87f61)" style="fill: none; stroke: #15b01a; stroke-width: 1.5; stroke-linecap: square"/>
   </g>
   <g id="patch_7">
    <path d="M 90 256.32 
L 90 34.56 
" style="fill: none; stroke: #000000; stroke-width: 0.8; stroke-linejoin: miter; stroke-linecap: square"/>
   </g>
   <g id="patch_8">
    <path d="M 648 256.32 
L 648 34.56 
" style="fill: none; stroke: #000000; stroke-width: 0.8; stroke-linejoin: miter; stroke-linecap: square"/>
   </g>
   <g id="patch_9">
    <path d="M 90 256.32 
L 648 256.32 
" style="fill: none; stroke: #000000; stroke-width: 0.8; stroke-linejoin: miter; stroke-linecap: square"/>
   </g>
   <g id="patch_10">
    <path d="M 90 34.56 
L 648 34.56 
" style="fill: none; stroke: #000000; stroke-width: 0.8; stroke-linejoin: miter; stroke-linecap: square"/>
   </g>
   <g id="legend_1">
    <g id="patch_11">
     <path d="M 97 86.594375 
L 279.478125 86.594375 
Q 281.478125 86.594375 281.478125 84.594375 
L 281.478125 41.56 
Q 281.478125 39.56 279.478125 39.56 
L 97 39.56 
Q 95 39.56 95 41.56 
L 95 84.594375 
Q 95 86.594375 97 86.594375 
z
" style="fill: #ffffff; opacity: 0.8; stroke: #cccccc; stroke-linejoin: miter"/>
    </g>
    <g id="line2d_24">
     <path d="M 99 47.658438 
L 109 47.658438 
L 119 47.658438 
" style="fill: none; stroke: #0504aa; stroke-width: 1.5; stroke-linecap: square"/>
    </g>
    <g id="text_24">
     <!-- to be removed based on pivot -->
     <g transform="translate(127 51.158438) scale(0.1 -0.1)">
      <use xlink:href="#DejaVuSans-74"/>
      <use xlink:href="#DejaVuSans-6f" x="39.208984"/>
      <use xlink:href="#DejaVuSans-20" x="100.390625"/>
      <use xlink:href="#DejaVuSans-62" x="132.177734"/>
      <use xlink:href="#DejaVuSans-65" x="195.654297"/>
      <use xlink:href="#DejaVuSans-20" x="257.177734"/>
      <use xlink:href="#DejaVuSans-72" x="288.964844"/>
      <use xlink:href="#DejaVuSans-65" x="327.828125"/>
      <use xlink:href="#DejaVuSans-6d" x="389.351562"/>
      <use xlink:href="#DejaVuSans-6f" x="486.763672"/>
      <use xlink:href="#DejaVuSans-76" x="547.945312"/>
      <use xlink:href="#DejaVuSans-65" x="607.125"/>
      <use xlink:href="#DejaVuSans-64" x="668.648438"/>
      <use xlink:href="#DejaVuSans-20" x="732.125"/>
      <use xlink:href="#DejaVuSans-62" x="763.912109"/>
      <use xlink:href="#DejaVuSans-61" x="827.388672"/>
      <use xlink:href="#DejaVuSans-73" x="888.667969"/>
      <use xlink:href="#DejaVuSans-65" x="940.767578"/>
      <use xlink:href="#DejaVuSans-64" x="1002.291016"/>
      <use xlink:href="#DejaVuSans-20" x="1065.767578"/>
      <use xlink:href="#DejaVuSans-6f" x="1097.554688"/>
      <use xlink:href="#DejaVuSans-6e" x="1158.736328"/>
      <use xlink:href="#DejaVuSans-20" x="1222.115234"/>
      <use xlink:href="#DejaVuSans-70" x="1253.902344"/>
      <use xlink:href="#DejaVuSans-69" x="1317.378906"/>
      <use xlink:href="#DejaVuSans-76" x="1345.162109"/>
      <use xlink:href="#DejaVuSans-6f" x="1404.341797"/>
      <use xlink:href="#DejaVuSans-74" x="1465.523438"/>
     </g>
    </g>
    <g id="line2d_25">
     <path d="M 99 62.336563 
L 109 62.336563 
L 119 62.336563 
" style="fill: none; stroke: #e50000; stroke-width: 1.5; stroke-linecap: square"/>
    </g>
    <g id="text_25">
     <!-- minimum to pass soft failure -->
     <g transform="translate(127 65.836563) scale(0.1 -0.1)">
      <use xlink:href="#DejaVuSans-6d"/>
      <use xlink:href="#DejaVuSans-69" x="97.412109"/>
      <use xlink:href="#DejaVuSans-6e" x="125.195312"/>
      <use xlink:href="#DejaVuSans-69" x="188.574219"/>
      <use xlink:href="#DejaVuSans-6d" x="216.357422"/>
      <use xlink:href="#DejaVuSans-75" x="313.769531"/>
      <use xlink:href="#DejaVuSans-6d" x="377.148438"/>
      <use xlink:href="#DejaVuSans-20" x="474.560547"/>
      <use xlink:href="#DejaVuSans-74" x="506.347656"/>
      <use xlink:href="#DejaVuSans-6f" x="545.556641"/>
      <use xlink:href="#DejaVuSans-20" x="606.738281"/>
      <use xlink:href="#DejaVuSans-70" x="638.525391"/>
      <use xlink:href="#DejaVuSans-61" x="702.001953"/>
      <use xlink:href="#DejaVuSans-73" x="763.28125"/>
      <use xlink:href="#DejaVuSans-73" x="815.380859"/>
      <use xlink:href="#DejaVuSans-20" x="867.480469"/>
      <use xlink:href="#DejaVuSans-73" x="899.267578"/>
      <use xlink:href="#DejaVuSans-6f" x="951.367188"/>
      <use xlink:href="#DejaVuSans-66" x="1012.548828"/>
      <use xlink:href="#DejaVuSans-74" x="1046.003906"/>
      <use xlink:href="#DejaVuSans-20" x="1085.212891"/>
      <use xlink:href="#DejaVuSans-66" x="1117"/>
      <use xlink:href="#DejaVuSans-61" x="1152.205078"/>
      <use xlink:href="#DejaVuSans-69" x="1213.484375"/>
      <use xlink:href="#DejaVuSans-6c" x="1241.267578"/>
      <use xlink:href="#DejaVuSans-75" x="1269.050781"/>
      <use xlink:href="#DejaVuSans-72" x="1332.429688"/>
      <use xlink:href="#DejaVuSans-65" x="1371.292969"/>
     </g>
    </g>
    <g id="line2d_26">
     <path d="M 99 77.014688 
L 109 77.014688 
L 119 77.014688 
" style="fill: none; stroke: #15b01a; stroke-width: 1.5; stroke-linecap: square"/>
    </g>
    <g id="text_26">
     <!-- % hard failures -->
     <g transform="translate(127 80.514688) scale(0.1 -0.1)">
      <defs>
       <path id="DejaVuSans-68" d="M 3513 2113 
L 3513 0 
L 2938 0 
L 2938 2094 
Q 2938 2591 2744 2837 
Q 2550 3084 2163 3084 
Q 1697 3084 1428 2787 
Q 1159 2491 1159 1978 
L 1159 0 
L 581 0 
L 581 4863 
L 1159 4863 
L 1159 2956 
Q 1366 3272 1645 3428 
Q 1925 3584 2291 3584 
Q 2894 3584 3203 3211 
Q 3513 2838 3513 2113 
z
" transform="scale(0.015625)"/>
      </defs>
      <use xlink:href="#DejaVuSans-25"/>
      <use xlink:href="#DejaVuSans-20" x="95.019531"/>
      <use xlink:href="#DejaVuSans-68" x="126.806641"/>
      <use xlink:href="#DejaVuSans-61" x="190.185547"/>
      <use xlink:href="#DejaVuSans-72" x="251.464844"/>
      <use xlink:href="#DejaVuSans-64" x="290.828125"/>
      <use xlink:href="#DejaVuSans-20" x="354.304688"/>
      <use xlink:href="#DejaVuSans-66" x="386.091797"/>
      <use xlink:href="#DejaVuSans-61" x="421.296875"/>
      <use xlink:href="#DejaVuSans-69" x="482.576172"/>
      <use xlink:href="#DejaVuSans-6c" x="510.359375"/>
      <use xlink:href="#DejaVuSans-75" x="538.142578"/>
      <use xlink:href="#DejaVuSans-72" x="601.521484"/>
      <use xlink:href="#DejaVuSans-65" x="640.384766"/>
      <use xlink:href="#DejaVuSans-73" x="701.908203"/>
     </g>
    </g>
   </g>
  </g>
 </g>
 <defs>
  <clipPath id="p8e05f87f61">
   <rect x="90" y="34.56" width="558" height="221.76"/>
  </clipPath>
 </defs>
</svg>
